<svg id="icons" xmlns="http://www.w3.org/2000/svg" viewBox="0 0 214 206.99">
  <defs>
    <style>
      .cls-1 {
        fill: #C2B197;
      }

      .cls-2 {
        fill: #C2B197;
      }

      .cls-3 {
        fill: #C2B197;
      }

      .cls-4 {
        fill: #C2B197;
      }
    </style>
  </defs>
  <path class="cls-1" d="M23.82,150.64A28.68,28.68,0,0,0,51.9,185.2a2.15,2.15,0,0,0,.67-.12C55.65,198.1,67.64,207,83.33,207a33.63,33.63,0,0,0,24.58-10.45A33.07,33.07,0,0,0,131.68,207a30.6,30.6,0,0,0,26.42-15.08,9.82,9.82,0,0,0,1.35-2.56,29.66,29.66,0,0,0,1.59-4.19c16-.77,29.75-13.83,29.75-28.64a28.83,28.83,0,0,0-.61-5.88,28.66,28.66,0,0,0,8.91-53.4,2.18,2.18,0,0,0-.31-.22,14.44,14.44,0,0,0-1.3-.66,28.67,28.67,0,0,0-10.2-51.25A28.71,28.71,0,0,0,160.17,17.7a29.21,29.21,0,0,0-1.4-2.93l0,0a.18.18,0,0,0-.05-.07A28.67,28.67,0,0,0,107,18.18a28.67,28.67,0,0,0-53.17-.48A28.71,28.71,0,0,0,26.72,45.11,28.67,28.67,0,0,0,16.56,96.39l0,0-.17.07-.08,0a28.68,28.68,0,0,0,7.55,54.12Zm-5.69-50.57a7.28,7.28,0,0,1,7.34,1,5.28,5.28,0,0,1,2.19,5.17,2,2,0,0,0,1.6,2.33,1.47,1.47,0,0,0,.36,0,2,2,0,0,0,2-1.64,9.28,9.28,0,0,0-3.66-9.06,11.34,11.34,0,0,0-5.24-2.26A2.07,2.07,0,0,0,22,95a24.69,24.69,0,0,1,6.27-46.15c.88-.15,14.59-2.25,20.37,13a2,2,0,0,0,1.87,1.29,2,2,0,0,0,1.87-2.71,27.59,27.59,0,0,0-3.69-6.83.34.34,0,0,0,0-.1,8.58,8.58,0,0,1,7-9.86A2,2,0,1,0,55,39.69a12.57,12.57,0,0,0-10.21,9.87,22.85,22.85,0,0,0-14-4.84A24.71,24.71,0,0,1,55.37,21.66a2,2,0,0,0,2-2s0,0,0,0A24.68,24.68,0,0,1,105,28.68a3.47,3.47,0,0,1-1,2.68,1.57,1.57,0,0,1-1.33.37,2,2,0,1,0-.65,3.94,5.15,5.15,0,0,0,1,.08,5.52,5.52,0,0,0,3.62-1.34,6.65,6.65,0,0,0,.65-.65,12.54,12.54,0,0,0,4.1,5.23,8.94,8.94,0,0,0,5.15,1.58,13,13,0,0,0,5-1.12A2,2,0,0,0,120,35.76c-2.61,1.11-4.68,1.09-6.34-.06-3.19-2.2-4.39-8.17-4.33-10.85a24.68,24.68,0,0,1,46-8.16,4.16,4.16,0,0,1,.08,4.32,4.85,4.85,0,0,1-4,2.36,2,2,0,0,0,0,4,8.91,8.91,0,0,0,7.4-4.32,8.05,8.05,0,0,0,.63-1.37A24.67,24.67,0,0,1,178.48,61a2,2,0,0,0,3.22,2.38,28.39,28.39,0,0,0,5.46-14.2,24.67,24.67,0,0,1,5,45.74,16.09,16.09,0,0,0-4.93.31,8.63,8.63,0,0,0-.13-1.81c-.6-3.17-3-6.54-6.34-6.54a2,2,0,0,0,0,4c.83,0,2.06,1.43,2.41,3.28a3.4,3.4,0,0,1-.55,2.84,14.79,14.79,0,0,0-1.32.84.6.6,0,0,0-.13.09A16.22,16.22,0,0,0,176.6,103a2,2,0,1,0,3.47,2,12.11,12.11,0,0,1,3.36-3.75,6.38,6.38,0,0,0,1.54-1,12,12,0,0,1,2.52-1,12.2,12.2,0,0,1,7,.19A24.68,24.68,0,1,1,173,143.76a2,2,0,1,0-2,3.46,28.69,28.69,0,0,0,14.35,3.84l.85,0a25.09,25.09,0,0,1,.62,5.48c0,12.92-13,24.68-27.26,24.68l-.15,0-.2,0-.21,0h0a11.26,11.26,0,0,0-4.47-5,2,2,0,0,0-2,3.46,7.39,7.39,0,0,1,3.41,4.9,6.44,6.44,0,0,1-.13,3.19,26.61,26.61,0,0,1-24,15.14,28.67,28.67,0,0,1-22.18-10.76l0,0-.09-.11s0,0,0-.05l-.06,0-.1-.09,0-.05-.07,0,0,0-.16-.09-.18-.08-.18-.07-.19,0-.19,0h-.39l-.16,0-.22,0-.16.06-.19.08-.15.09-.06,0-.07,0,0,.05-.09.08s0,0-.06.05l0,.06-.09.1,0,0c-5,6.64-13.85,10.76-23,10.76-16.22,0-27.54-10.14-27.54-24.67a.5.5,0,0,0,0-.12v-.14c-.39-3,.17-5.61,1.54-7.18a5.84,5.84,0,0,1,4.62-1.81,2,2,0,1,0,0-4,11.51,11.51,0,0,0-3.28.45,12.56,12.56,0,0,0-1.36-4,9.19,9.19,0,0,0-6-4.9,2,2,0,0,0-.78,3.93c2.56.51,4.49,4.39,4.29,7.17-.16.16-.33.32-.49.49-2.13,2.44-3,6-2.51,10.19,0,.94.05,1.86.14,2.77h0a24.71,24.71,0,0,1-24.69-24.68,25.09,25.09,0,0,1,.62-5.48l.85,0a28.49,28.49,0,0,0,10.62-2,2,2,0,0,0-1.48-3.72A24.69,24.69,0,0,1,4,122.38,24.86,24.86,0,0,1,18.13,100.07Z" />
  <path class="cls-2" d="M144.68,150.39a12.4,12.4,0,0,0-10.38,5.74H122.6a4.93,4.93,0,0,0-4.93,4.93v41.39a2,2,0,0,0,4,0V161.06a.93.93,0,0,1,.93-.93h12.87a2,2,0,0,0,1.79-1.11,8.27,8.27,0,1,1,0,7.28,2,2,0,0,0-1.79-1.11h-6.74a2,2,0,0,0-2,2V205a2,2,0,0,0,4,0V169.19h3.57a12.27,12.27,0,1,0,10.38-18.8Z" />
  <path class="cls-2" d="M86.49,86.5A12.26,12.26,0,0,0,80,109.15V205a2,2,0,0,0,4,0V108a2,2,0,0,0-1.11-1.79,8.27,8.27,0,1,1,7.28,0A2,2,0,0,0,89,108v96.09a2,2,0,0,0,4,0V109.15A12.26,12.26,0,0,0,86.49,86.5Z" />
  <path class="cls-3" d="M48.35,99.88a12.38,12.38,0,0,0,10.38-5.74h.89v103a2,2,0,0,0,4,0v-105a2,2,0,0,0-2-2h-4a2,2,0,0,0-1.8,1.11,8.28,8.28,0,1,1,0-7.28,2,2,0,0,0,1.8,1.11h10.5a1,1,0,0,1,.66.27A1,1,0,0,1,69,86l-.28,116.82a2,2,0,0,0,2,2h0a2,2,0,0,0,2-2L73,86a5,5,0,0,0-1.44-3.5,4.91,4.91,0,0,0-3.49-1.45H58.73a12.27,12.27,0,1,0-10.38,18.8Z" />
  <path class="cls-3" d="M169.75,112.54a12.37,12.37,0,0,0-10.38,5.75H112.58V96.08h30.28A12.28,12.28,0,1,0,153.21,77.2,12.35,12.35,0,0,0,142.78,83H104.46A4.93,4.93,0,0,0,99.53,88V199.74a2,2,0,0,0,4,0V88a.93.93,0,0,1,.93-.93H144a2,2,0,0,0,1.8-1.13,8.27,8.27,0,1,1,7.45,11.85,8.2,8.2,0,0,1-7.39-4.56A2,2,0,0,0,144,92.08H110.58a2,2,0,0,0-2,2v26.21a2,2,0,0,0,2,2h50a2,2,0,0,0,1.8-1.12,8.28,8.28,0,1,1,0,7.28,2,2,0,0,0-1.8-1.11H110.58a2,2,0,0,0-2,2v67.1a2,2,0,0,0,4,0v-65.1h46.79a12.27,12.27,0,1,0,10.38-18.8Z" />
  <path class="cls-3" d="M87.37,59.76A2,2,0,0,0,88.49,58V2.72a2,2,0,1,0-4,0V56.8a12.28,12.28,0,1,0,13.05,0V7.68a2,2,0,1,0-4,0V58a2,2,0,0,0,1.12,1.79,8.28,8.28,0,1,1-7.29,0Z" />
  <path class="cls-4" d="M165.93,53.17a14.52,14.52,0,0,0-27-7.52h-5V2a2,2,0,0,0-4,0V47.65a2,2,0,0,0,2,2h8.23A2,2,0,0,0,142,48.54a10.54,10.54,0,1,1,0,9.27,2,2,0,0,0-1.79-1.11h-15.7a1.58,1.58,0,0,1-1.58-1.58V5.63a2,2,0,1,0-4,0V55.12a5.58,5.58,0,0,0,5.58,5.58H139a14.52,14.52,0,0,0,27-7.53Z" />
  <path class="cls-4" d="M77.25,31.74V2.48a2,2,0,0,0-4,0V32.9a2,2,0,0,0,1.11,1.8,8.27,8.27,0,1,1-7.28,0,2,2,0,0,0,1.12-1.8V6.14a2,2,0,0,0-4,0v25.6a12.28,12.28,0,1,0,13,0Z" />
</svg>