<svg width="66" height="66" viewBox="0 0 66 66" fill="none" xmlns="http://www.w3.org/2000/svg">
<path d="M33.0072 7.88506e-07C26.4798 -0.00142581 20.0986 1.93297 14.6707 5.55851C9.24277 9.18405 5.01195 14.3379 2.51337 20.3681C0.0147824 26.3984 -0.639332 33.0342 0.633749 39.4362C1.90683 45.8383 5.04994 51.719 9.6655 56.3345C14.2811 60.9501 20.1617 64.0932 26.5638 65.3662C32.9658 66.6393 39.6017 65.9852 45.6319 63.4866C51.6622 60.988 56.816 56.7573 60.4415 51.3293C64.067 45.9014 66.0014 39.5202 66 32.9928C65.9885 24.2461 62.5088 15.8609 56.324 9.67603C50.1391 3.49116 41.7539 0.0114519 33.0072 7.88506e-07ZM33.0072 63.1075C27.0508 63.109 21.2277 61.344 16.2744 58.0358C11.3211 54.7276 7.46009 50.0248 5.17967 44.5222C2.89925 39.0196 2.30187 32.9643 3.46304 27.1221C4.62421 21.28 7.49179 15.9134 11.7031 11.701C15.9145 7.48867 21.2804 4.61979 27.1222 3.45722C32.9641 2.29465 39.0196 2.89062 44.5227 5.16972C50.0259 7.44882 54.7296 11.3087 58.039 16.2612C61.3484 21.2137 63.1148 27.0363 63.1148 32.9928C63.1052 40.9755 59.9303 48.6287 54.2864 54.2741C48.6424 59.9194 40.9899 63.0961 33.0072 63.1075Z" fill="url(#paint0_linear_985_8204)"/>
<path d="M33.0076 10.532C28.5635 10.5306 24.2189 11.8265 20.523 14.2559C16.8272 16.6853 13.9463 20.139 12.2446 24.1802C10.5429 28.2214 10.097 32.6687 10.9631 36.9594C11.8292 41.2502 13.9685 45.1917 17.1104 48.2855C20.2523 51.3794 24.2557 53.4865 28.6143 54.3405C32.9729 55.1945 37.4908 54.7569 41.5968 53.0831C45.7027 51.4093 49.2122 48.5746 51.6813 44.9373C54.1505 41.3 55.4684 37.0236 55.4684 32.649C55.4607 26.7868 53.0921 21.1667 48.8817 17.0208C44.6714 12.8749 38.9629 10.5415 33.0076 10.532ZM33.0076 51.8927C29.1408 51.8942 25.3605 50.7667 22.1447 48.6531C18.9289 46.5394 16.4221 43.5344 14.9413 40.0182C13.4606 36.502 13.0724 32.6325 13.8259 28.8991C14.5794 25.1657 16.4407 21.7362 19.1744 19.0442C21.9081 16.3522 25.3914 14.5187 29.1838 13.7756C32.9762 13.0324 36.9072 13.4131 40.4798 14.8694C44.0524 16.3257 47.106 18.7922 49.2544 21.957C51.4028 25.1218 52.5495 28.8426 52.5495 32.649C52.5437 37.7497 50.4832 42.6401 46.8199 46.2475C43.1565 49.855 38.1893 51.8851 33.0076 51.8927Z" fill="url(#paint1_linear_985_8204)"/>
<path d="M35.1633 42.2127C40.2745 41.0075 43.44 35.8913 42.2337 30.7852C41.0273 25.6791 35.9059 22.5168 30.7947 23.7219C25.6835 24.9271 22.518 30.0433 23.7243 35.1494C24.9307 40.2555 30.0521 43.4178 35.1633 42.2127Z" fill="url(#paint2_linear_985_8204)"/>
<defs>
<linearGradient id="paint0_linear_985_8204" x1="-4.5" y1="31.5" x2="72" y2="31.5" gradientUnits="userSpaceOnUse">
<stop stop-color="#DE30D7"/>
<stop offset="0.607159" stop-color="#64308F"/>
<stop offset="1" stop-color="#193062"/>
</linearGradient>
<linearGradient id="paint1_linear_985_8204" x1="7.4684" y1="31.6437" x2="59.5535" y2="31.6437" gradientUnits="userSpaceOnUse">
<stop stop-color="#DE30D7"/>
<stop offset="0.607159" stop-color="#64308F"/>
<stop offset="1" stop-color="#193062"/>
</linearGradient>
<linearGradient id="paint2_linear_985_8204" x1="22.3631" y1="35.0267" x2="43.8148" y2="29.9586" gradientUnits="userSpaceOnUse">
<stop stop-color="#DE30D7"/>
<stop offset="0.607159" stop-color="#64308F"/>
<stop offset="1" stop-color="#193062"/>
</linearGradient>
</defs>
</svg>
