<svg width="73" height="66" viewBox="0 0 73 66" fill="none" xmlns="http://www.w3.org/2000/svg">
<path d="M49.8535 32.8297C49.8535 24.6308 49.8503 16.4323 49.8438 8.23416C49.8438 7.55654 50.2049 7.12203 50.9644 7.12444C55.5658 7.1437 60.1659 7.13407 64.7661 7.13407C65.5833 7.13407 65.8878 7.43738 65.8878 8.26305C65.8878 24.6408 65.8878 41.0178 65.8878 57.3939C65.8878 58.1161 65.5123 58.5229 64.7769 58.5193C60.1671 58.5001 55.5569 58.5001 50.9463 58.5193C50.2242 58.5193 49.839 58.0944 49.8402 57.4252C49.8571 49.2255 49.8615 41.027 49.8535 32.8297Z" fill="url(#paint0_linear_985_8208)"/>
<path d="M28.4946 39.9224C28.4946 34.1107 28.4946 28.2977 28.4946 22.4835C28.4946 21.6687 28.7834 21.375 29.591 21.375H43.4228C44.2148 21.375 44.506 21.6711 44.506 22.4582V57.4264C44.506 58.1979 44.2027 58.5096 43.4396 58.5096H29.5525C28.8075 58.5096 28.4958 58.1991 28.4958 57.4529C28.495 51.609 28.4946 45.7655 28.4946 39.9224Z" fill="url(#paint1_linear_985_8208)"/>
<path d="M23.1513 47.197V57.7201C23.1513 58.4206 22.8215 58.7588 22.1306 58.7588C17.4703 58.7588 12.8103 58.7588 8.15082 58.7588C7.46476 58.7588 7.13739 58.4375 7.11693 57.7538C7.10971 57.4926 7.11693 57.2327 7.11693 56.9715C7.11693 50.2674 7.11693 43.563 7.11693 36.8581C7.11425 36.6781 7.12672 36.4981 7.15423 36.3201C7.18362 36.146 7.26832 35.9859 7.39579 35.8636C7.52326 35.7414 7.68671 35.6634 7.86195 35.6413C7.97125 35.6264 8.08142 35.6188 8.19173 35.6184C12.8208 35.6184 17.4506 35.6184 22.0813 35.6184C22.6626 35.6184 22.9683 35.8086 23.1067 36.2624C23.1402 36.3977 23.1544 36.5371 23.1489 36.6764C23.1513 40.1829 23.1521 43.6898 23.1513 47.197Z" fill="url(#paint2_linear_985_8208)"/>
<path d="M1.79384 64.1003H71.9324C72.5414 64.1003 72.8892 64.341 72.9843 64.8225C73.0065 64.9382 73.0051 65.0573 72.9802 65.1726C72.9552 65.2878 72.9073 65.3968 72.8391 65.493C72.771 65.5893 72.6842 65.6707 72.5838 65.7325C72.4834 65.7943 72.3715 65.8352 72.2549 65.8527C72.116 65.87 71.976 65.8776 71.8361 65.8756H1.16797C0.306196 65.8756 0.000487624 65.5651 0.000487624 64.6961C0.000487624 43.5256 0.000487624 22.3551 0.000487624 1.18459C-0.00441802 0.965721 0.0277202 0.747603 0.0955619 0.53946C0.230365 0.167548 0.577002 -0.0153917 0.983818 0.0207162C1.16508 0.032909 1.33755 0.103364 1.4755 0.221576C1.61345 0.339788 1.70949 0.499418 1.74931 0.676672C1.78128 0.853725 1.79461 1.03364 1.78903 1.21347C1.78903 22.0229 1.78903 42.8323 1.78903 63.6417L1.79384 64.1003Z" fill="url(#paint3_linear_985_8208)"/>
<path d="M34.2621 1.79246H22.3272C21.9421 1.79246 21.6387 1.64322 21.469 1.29778C21.3186 0.990866 21.3138 0.652653 21.5485 0.39388C21.6977 0.23019 21.9312 0.132699 22.1418 0.0327999C22.2593 0.000566982 22.3821 -0.00801949 22.5029 0.00752906C27.083 0.00752906 31.6635 0.00952624 36.2444 0.0135382C36.5015 0.0143752 36.7551 0.0723465 36.987 0.18325C37.3108 0.345736 37.4059 0.664689 37.4047 1.02577C37.4047 2.12826 37.4047 3.23076 37.4047 4.33326C37.4047 7.88146 37.4047 11.4297 37.4047 14.9779C37.4047 15.499 37.1904 15.8553 36.8029 15.9829C36.6822 16.0264 36.5535 16.0431 36.4257 16.0318C36.2979 16.0205 36.1742 15.9814 36.063 15.9174C35.9519 15.8533 35.856 15.7658 35.7822 15.6609C35.7083 15.556 35.6582 15.4363 35.6354 15.3101C35.6136 15.1716 35.6052 15.0313 35.6101 14.8912C35.6101 11.083 35.6101 7.27445 35.6101 3.46547V3.08151C35.4717 3.2127 35.379 3.29696 35.2912 3.38482C26.468 12.2016 17.6476 21.0175 8.83005 29.8327C8.56646 30.0963 8.29925 30.3141 7.89003 30.2576C7.73462 30.2422 7.58673 30.1832 7.46342 30.0873C7.34011 29.9915 7.24641 29.8628 7.19314 29.7159C7.13104 29.5723 7.11054 29.4142 7.13394 29.2595C7.15735 29.1048 7.22374 28.9597 7.32555 28.8409C7.3906 28.7647 7.46013 28.6923 7.53377 28.6243C16.3754 19.777 25.2178 10.9294 34.0611 2.08133C34.1442 2.00976 34.2331 1.94534 34.3271 1.88875L34.2621 1.79246Z" fill="url(#paint4_linear_985_8208)"/>
<defs>
<linearGradient id="paint0_linear_985_8208" x1="-2" y1="32" x2="68" y2="33" gradientUnits="userSpaceOnUse">
<stop stop-color="#DE30D7"/>
<stop offset="1" stop-color="#193062"/>
</linearGradient>
<linearGradient id="paint1_linear_985_8208" x1="-2" y1="32" x2="68" y2="33" gradientUnits="userSpaceOnUse">
<stop stop-color="#DE30D7"/>
<stop offset="1" stop-color="#193062"/>
</linearGradient>
<linearGradient id="paint2_linear_985_8208" x1="-2" y1="32" x2="68" y2="33" gradientUnits="userSpaceOnUse">
<stop stop-color="#DE30D7"/>
<stop offset="1" stop-color="#193062"/>
</linearGradient>
<linearGradient id="paint3_linear_985_8208" x1="-2" y1="32" x2="68" y2="33" gradientUnits="userSpaceOnUse">
<stop stop-color="#DE30D7"/>
<stop offset="1" stop-color="#193062"/>
</linearGradient>
<linearGradient id="paint4_linear_985_8208" x1="-2" y1="32" x2="68" y2="33" gradientUnits="userSpaceOnUse">
<stop stop-color="#DE30D7"/>
<stop offset="1" stop-color="#193062"/>
</linearGradient>
</defs>
</svg>
