<svg width="72" height="71" viewBox="0 0 72 71" fill="none" xmlns="http://www.w3.org/2000/svg">
<path d="M71.8142 51.2084C71.874 52.9417 71.9305 54.6738 71.9976 56.406C72.0082 56.5561 71.9834 56.7066 71.9252 56.8453C71.8671 56.9841 71.7772 57.1072 71.6628 57.2048C69.6626 59.0694 67.6652 60.9375 65.6707 62.8092C64.2491 64.1363 62.825 65.4605 61.3983 66.7819C61.2128 66.9527 61.1851 67.0883 61.2917 67.3158C61.7438 68.2705 61.5114 69.3331 60.8119 70.07C60.4609 70.4275 60.0103 70.6705 59.5191 70.7673C59.0279 70.8641 58.519 70.8101 58.0589 70.6125C57.0194 70.1501 56.4713 69.1665 56.5577 68.1413C56.6558 66.973 57.4629 66.0685 58.5419 65.8656C59.0852 65.7557 59.6497 65.8356 60.1413 66.092C60.2895 66.1689 60.3705 66.1326 60.4814 66.0279C62.756 63.8921 65.0306 61.7609 67.3052 59.6343C68.4269 58.5845 69.5517 57.539 70.6691 56.4839C70.7454 56.4059 70.7888 56.3016 70.7907 56.1924C70.7153 53.759 70.6347 51.3248 70.5486 48.89C70.5167 47.9662 70.4847 47.0414 70.442 46.1187C70.4315 46.0067 70.3885 45.9002 70.3183 45.8123C69.4313 44.7038 68.5381 43.6002 67.6389 42.5017C67.5993 42.4601 67.5517 42.4269 67.4989 42.4041C67.4461 42.3814 67.3893 42.3695 67.3319 42.3693C65.7912 42.4611 64.2505 42.5647 62.7098 42.6662C61.2398 42.7623 59.7702 42.8584 58.301 42.9545C56.8221 43.0528 55.3422 43.1339 53.8666 43.2631C53.3121 43.3112 52.9262 43.1873 52.5604 42.7292C50.7809 40.51 48.9619 38.3165 47.1686 36.106C47.1012 36.0154 47.0124 35.9431 46.9103 35.8954C46.8081 35.8477 46.6957 35.8261 46.5832 35.8326C43.2545 35.8048 39.9257 35.7692 36.597 35.7258C34.6266 35.7034 32.652 35.6809 30.6858 35.6446C30.4054 35.6446 30.2594 35.7098 30.1666 35.9874C29.9427 36.6976 29.4053 37.1312 28.7603 37.4216C27.8412 37.8349 26.5916 37.4814 25.9518 36.657C25.3537 35.886 25.2161 35.0316 25.5914 34.1314C25.9668 33.2311 26.6747 32.71 27.6418 32.6149C28.6632 32.5146 29.7252 33.0709 30.1154 34.0769C30.2295 34.3717 30.3745 34.4763 30.7072 34.4785C34.5338 34.5009 38.3594 34.5457 42.1861 34.5852C43.8014 34.6013 45.4168 34.6226 47.0321 34.6365C47.1772 34.6312 47.3216 34.6608 47.453 34.7226C47.5845 34.7845 47.6994 34.8769 47.788 34.9921C49.6454 37.2703 51.5056 39.5461 53.3686 41.8193C53.4272 41.9039 53.5081 41.9706 53.6021 42.012C53.6962 42.0535 53.7999 42.0681 53.9017 42.0543C55.7335 41.9218 57.5663 41.8022 59.3992 41.6826C61.1435 41.5684 62.8878 41.4594 64.6322 41.3452C65.5619 41.2843 66.4917 41.2298 67.4193 41.1455C67.8458 41.107 68.1656 41.2213 68.4343 41.5726C69.4142 42.8135 70.4207 44.0288 71.4016 45.2708C71.5283 45.4396 71.6024 45.6421 71.6149 45.8528C71.6852 47.4867 71.7343 49.1217 71.7908 50.7556C71.7961 50.9073 71.8068 51.0578 71.8153 51.2084H71.8142Z" fill="url(#paint0_linear_985_8209)"/>
<path d="M19.8295 26.9593C20.6175 26.9593 21.3787 26.9689 22.139 26.9593C24.7931 26.9187 27.4466 26.8738 30.0994 26.8247C33.0137 26.7734 35.9245 26.7204 38.8317 26.6656L47.563 26.5054C48.5226 26.4872 49.4822 26.4766 50.4418 26.4477C50.5959 26.4366 50.7503 26.4645 50.8908 26.5289C51.0313 26.5933 51.1534 26.6921 51.2457 26.8162C52.4527 28.3112 53.6746 29.7839 54.8837 31.2736C54.917 31.3342 54.9728 31.3793 55.0389 31.3993C55.1051 31.4192 55.1764 31.4125 55.2377 31.3804C55.5668 31.2585 55.9182 31.2086 56.2681 31.234C56.6181 31.2595 56.9586 31.3597 57.2667 31.5279C57.5748 31.6962 57.8434 31.9286 58.0543 32.2095C58.2653 32.4904 58.4137 32.8132 58.4896 33.1564C58.6333 33.7679 58.5398 34.4113 58.2278 34.9563C57.9158 35.5013 57.4088 35.9073 56.8093 36.0921C56.4806 36.1975 56.1336 36.2329 55.7905 36.1962C55.4474 36.1594 55.1157 36.0513 54.8168 35.8786C54.5178 35.706 54.2582 35.4727 54.0545 35.1937C53.8509 34.9147 53.7076 34.5961 53.6341 34.2585C53.4963 33.6825 53.5865 33.0756 53.8857 32.5648C54.0989 32.1835 54.0989 32.1835 53.8249 31.8492C52.7281 30.5108 51.6328 29.1709 50.5388 27.8296C50.4905 27.7634 50.4257 27.7109 50.3509 27.6774C50.2761 27.6438 50.1939 27.6304 50.1123 27.6385C46.377 27.7132 42.6413 27.7844 38.9053 27.852C35.4273 27.9147 31.9485 27.9752 28.4691 28.0336L19.7112 28.1938C19.6046 28.1938 19.4979 28.2066 19.3913 28.2066C18.8358 28.2066 18.6044 27.9684 18.6151 27.4078C18.646 25.8262 18.6791 24.2435 18.7057 22.662C18.7541 19.8099 18.7999 16.9568 18.8433 14.1026C18.8916 11.1352 18.9414 8.16677 18.9925 5.19725C18.9925 5.00289 18.9435 4.91959 18.758 4.86086C17.4785 4.45078 16.7386 3.05395 17.1373 1.81089C17.583 0.422603 18.9328 -0.300374 20.2837 0.11825C21.4001 0.465322 22.0835 1.53751 22.0153 2.5563C21.9449 3.61567 21.4321 4.39738 20.4255 4.80426C20.2368 4.88008 20.1846 4.98474 20.1814 5.18123C20.1537 7.28716 20.1153 9.3931 20.0748 11.5001C20.0215 14.6732 19.9681 17.846 19.9148 21.0184C19.8828 22.9471 19.8516 24.8757 19.821 26.8044C19.8221 26.8578 19.8274 26.9101 19.8295 26.9593Z" fill="url(#paint1_linear_985_8209)"/>
<path d="M3.19756 37.8082C5.57736 37.8584 6.67344 40.7984 4.74785 42.3394C5.23937 42.6779 5.72557 43.0143 6.21283 43.3486C7.28758 44.0854 8.35594 44.8308 9.44135 45.5506C9.60571 45.6444 9.74025 45.7827 9.82948 45.9498C9.91872 46.1168 9.959 46.3057 9.94567 46.4947C9.90835 48.8868 9.89555 51.2779 9.86037 53.6689C9.86037 53.9306 9.93607 54.0619 10.1696 54.173C11.449 54.7774 11.8979 56.4466 11.1878 57.648C11.013 57.9346 10.7831 58.1836 10.5113 58.3803C10.2395 58.5771 9.9314 58.7177 9.60484 58.7941C9.27828 58.8704 8.93981 58.8809 8.60916 58.8249C8.27851 58.769 7.96228 58.6477 7.67889 58.4681C6.86962 57.9459 6.38449 56.8737 6.58387 55.9244C6.79712 54.9013 7.41766 54.2157 8.44656 53.9519C8.61929 53.9071 8.68966 53.8451 8.69073 53.6529C8.70494 51.369 8.72627 49.0844 8.7547 46.799C8.76142 46.7132 8.74327 46.6272 8.70242 46.5514C8.66157 46.4757 8.59976 46.4133 8.5244 46.3718C6.86963 45.2463 5.21912 44.1089 3.56648 42.9844C3.42919 42.89 3.2697 42.8329 3.10373 42.8189C2.73755 42.7984 2.38044 42.6971 2.05794 42.5221C1.73545 42.3472 1.45556 42.103 1.23832 41.8071C1.02109 41.5111 0.87188 41.1707 0.801384 40.8102C0.730888 40.4497 0.740848 40.0781 0.830551 39.7219C0.959128 39.1418 1.3093 38.635 1.80615 38.3101C1.87379 38.2709 1.92819 38.2124 1.96238 38.142C1.99658 38.0716 2.009 37.9925 1.99806 37.915C1.96074 36.8845 1.94155 35.8539 1.90957 34.8181C1.90269 34.682 1.92809 34.5462 1.98369 34.4218C2.03929 34.2975 2.1235 34.188 2.22943 34.1026C3.23701 33.2055 4.23392 32.2946 5.2351 31.389C7.26092 29.5543 9.28674 27.7132 11.3243 25.8924C11.6175 25.6297 11.6783 25.3755 11.6591 24.9986C11.5802 23.4558 11.5272 21.9109 11.5002 20.3638C11.4586 18.0795 11.4448 15.7953 11.4181 13.5099C11.4181 13.4491 11.4096 13.3882 11.4043 13.3113C10.8785 13.2096 10.3955 12.9518 10.0182 12.5712C8.73124 11.262 9.33366 8.99157 11.0929 8.47043C11.4215 8.36809 11.7678 8.33536 12.1097 8.37433C12.4516 8.41329 12.7817 8.5231 13.0789 8.69677C13.3762 8.87043 13.6341 9.10416 13.8362 9.38307C14.0384 9.66199 14.1804 9.97999 14.2532 10.3169C14.4771 11.3122 14.0464 12.4772 13.0494 12.9802C12.7019 13.1554 12.6048 13.3508 12.6102 13.7278C12.6507 16.7948 12.6571 19.863 12.7008 22.93C12.7125 23.7908 12.8074 24.6504 12.8799 25.509C12.9033 25.6669 12.8863 25.8282 12.8303 25.9776C12.7743 26.1271 12.6813 26.2598 12.56 26.3634C10.397 28.3127 8.23616 30.2645 6.07742 32.2188C5.13595 33.0731 4.19661 33.9274 3.25193 34.7721C3.1943 34.8184 3.14889 34.8782 3.1197 34.9461C3.09051 35.0141 3.07844 35.0882 3.08454 35.1619C3.11653 35.9436 3.13465 36.7264 3.15917 37.5113C3.17623 37.6021 3.18796 37.6982 3.19756 37.8082Z" fill="url(#paint2_linear_985_8209)"/>
<path d="M50.8832 68.4521C50.9216 67.6689 50.9596 66.8858 50.9973 66.1027C51.0154 65.7203 51.0442 65.3391 51.0453 64.9568C51.0429 64.8325 51.068 64.7092 51.1189 64.5958C51.1698 64.4824 51.2452 64.3818 51.3396 64.3011C52.5757 63.167 53.8107 62.0311 55.0447 60.8934C55.0995 60.8352 55.1587 60.7813 55.2217 60.7321C55.452 60.5762 55.4733 60.3957 55.3901 60.1266C55.0074 58.8825 55.791 57.5081 57.0375 57.1129C57.3889 57.0016 57.7606 56.97 58.1257 57.0205C58.4908 57.071 58.8401 57.2023 59.1483 57.4049C59.4564 57.6074 59.7156 57.8762 59.9071 58.1916C60.0986 58.5071 60.2175 58.8613 60.2553 59.2285C60.3513 60.2323 59.9664 61.0525 59.1177 61.5928C58.2412 62.1514 57.3243 62.1428 56.4382 61.5843C56.2559 61.47 56.161 61.4636 55.9947 61.6195C54.8037 62.7377 53.5957 63.8376 52.4026 64.9525C52.3014 65.0555 52.2396 65.1908 52.2277 65.3348C52.1627 66.5234 52.1147 67.7141 52.0614 68.9038C52.039 69.4036 51.8172 69.6033 51.3151 69.6375C49.929 69.7293 48.5365 69.8393 47.1472 69.9322C46.7711 69.9751 46.3915 69.9779 46.0149 69.9408C45.8016 69.9098 45.5937 69.7272 45.4156 69.5777C41.8459 66.5377 38.2798 63.4934 34.7172 60.4448C31.955 58.084 29.1931 55.7221 26.4316 53.3592C26.3305 53.2805 26.2484 53.18 26.1914 53.0652C26.1343 52.9504 26.1038 52.8243 26.1021 52.696C26.0573 51.3013 25.9955 49.9066 25.9593 48.5119C25.9529 48.2652 25.8782 48.1681 25.6394 48.0997C24.2288 47.7003 23.4824 46.2213 24.0198 44.7988C24.1384 44.4857 24.3194 44.2 24.5519 43.9594C24.7844 43.7187 25.0634 43.528 25.372 43.399C25.6805 43.2699 26.0121 43.2052 26.3464 43.2089C26.6808 43.2125 27.0109 43.2844 27.3165 43.4201C28.2836 43.8355 28.8242 44.6237 28.8221 45.6724C28.8221 46.6516 28.3956 47.4579 27.4701 47.915C27.2121 48.0421 27.114 48.1787 27.1289 48.4746C27.1961 49.7625 27.2355 51.0504 27.292 52.3383C27.3052 52.4644 27.3644 52.5812 27.4584 52.6661C31.9223 56.4871 36.3897 60.3053 40.8608 64.1206C42.6264 65.6285 44.3924 67.1371 46.1588 68.6464C46.2389 68.7241 46.3431 68.7719 46.4541 68.7821C47.8967 68.6902 49.3393 68.5845 50.7819 68.4809C50.8164 68.474 50.8503 68.4643 50.8832 68.4521Z" fill="url(#paint3_linear_985_8209)"/>
<path d="M28.8445 65.0807C29.1836 64.9301 29.4842 64.7539 29.8116 64.6599C30.4371 64.4842 31.1065 64.5615 31.6757 64.8753C32.2449 65.1891 32.6682 65.7142 32.8546 66.3376C33.0441 66.9603 32.9818 67.6327 32.681 68.2098C32.3802 68.7869 31.8651 69.2225 31.2467 69.4228C30.2946 69.7282 29.4267 69.5296 28.7208 68.8344C28.0416 68.1616 27.8188 67.3286 28.0811 66.3889C28.1344 66.1956 28.1461 66.0482 27.9745 65.8741C26.1733 64.0459 24.3795 62.2101 22.5933 60.3669C20.8447 58.5735 19.0957 56.7812 17.3464 54.9899C17.2445 54.8858 17.1649 54.7619 17.1127 54.6258C17.0604 54.4897 17.0365 54.3443 17.0425 54.1986C17.0148 51.914 16.9828 49.6297 16.9465 47.3458C16.9202 45.6756 16.89 44.005 16.8559 42.3341C16.8557 42.2232 16.8125 42.1167 16.7354 42.0372C16.0552 41.5032 15.3632 40.9757 14.6734 40.4481C14.6254 40.4268 14.6531 40.4332 14.6734 40.4481C14.2618 40.6702 13.911 40.9233 13.5208 41.06C11.8884 41.6314 10.1974 40.3125 10.2891 38.5729C10.3175 37.9357 10.5896 37.3339 11.0489 36.8922C11.5082 36.4505 12.1195 36.2026 12.7563 36.1999C14.3983 36.1999 15.4709 37.6801 15.215 39.0459C15.1905 39.1336 15.1956 39.2269 15.2295 39.3113C15.2634 39.3957 15.3243 39.4665 15.4027 39.5126C16.1906 40.101 16.9647 40.7065 17.7483 41.3056C17.8391 41.3694 17.9135 41.4539 17.9652 41.5521C18.0169 41.6504 18.0446 41.7595 18.0458 41.8706C18.0607 42.8573 18.076 43.8437 18.0917 44.8298C18.1407 47.8869 18.1919 50.9443 18.2452 54.0021C18.2563 54.1292 18.3105 54.2487 18.3987 54.3406C19.5033 55.4844 20.6154 56.6196 21.7253 57.758C23.9452 60.0362 26.1647 62.3144 28.3839 64.5926C28.5417 64.7571 28.7038 64.9322 28.8445 65.0807Z" fill="url(#paint4_linear_985_8209)"/>
<path d="M13.9025 69.2007C13.0495 69.2007 12.1965 69.1911 11.3436 69.2007C11.1806 69.2082 11.018 69.1804 10.8667 69.1192C10.7155 69.058 10.5792 68.9649 10.4671 68.8462C9.62269 68.0068 8.76118 67.1802 7.9146 66.3494C5.98687 64.472 4.05843 62.5953 2.12928 60.7193C2.02217 60.6215 1.93796 60.5012 1.88267 60.367C1.82737 60.2327 1.80235 60.0879 1.80941 59.9429C1.82221 58.5472 1.80302 57.1503 1.82328 55.7546C1.82328 55.4417 1.74331 55.2879 1.44903 55.1704C0.284719 54.7037 -0.25692 53.2706 0.117323 52.1557C0.313133 51.5806 0.709511 51.0957 1.23365 50.7898C1.7578 50.484 2.37451 50.3778 2.97053 50.4908C4.12631 50.6991 5.00489 51.7979 4.97503 52.9972C4.96843 53.5288 4.79045 54.044 4.46765 54.4661C4.14485 54.8881 3.69451 55.1944 3.18378 55.3391C3.15398 55.3424 3.12516 55.3517 3.09906 55.3664C3.07296 55.3812 3.05015 55.4011 3.03199 55.425C3.01383 55.4489 3.00072 55.4762 2.99345 55.5053C2.98619 55.5344 2.98492 55.5647 2.98973 55.5944C2.99613 56.9731 2.98973 58.3517 2.99932 59.7294C3.00297 59.8397 3.04611 59.9451 3.12087 60.0262C5.80775 62.6519 8.49853 65.2736 11.1932 67.8914C11.2694 67.9609 11.3675 68.0013 11.4704 68.0057C13.1657 68.0121 14.8621 68.0057 16.5584 68.0121C16.7024 68.0121 16.7717 67.9758 16.8111 67.8188C17.2152 66.4038 18.6856 65.683 20.1164 66.1849C21.3767 66.6302 22.0484 68.1904 21.5196 69.4645C21.0856 70.51 19.9256 71.1913 18.7837 70.9521C17.8966 70.7663 17.2782 70.2878 16.9306 69.457C16.8431 69.2488 16.7269 69.1943 16.5147 69.1964C15.6415 69.2071 14.7704 69.2007 13.9025 69.2007Z" fill="url(#paint5_linear_985_8209)"/>
<path d="M36.2301 40.4332C36.7978 40.4189 37.3537 40.597 37.8078 40.9384C38.262 41.2799 38.5878 41.7649 38.7326 42.3148C38.8654 42.8641 38.8104 43.4422 38.5763 43.9565C38.3421 44.4707 37.9425 44.8914 37.4414 45.1512C37.355 45.2136 37.2577 45.2592 37.1545 45.2858C36.8251 45.3103 36.8347 45.5132 36.8347 45.7653C36.9114 47.9011 36.9765 50.0305 37.0479 52.1621C37.0565 52.4195 37.066 52.6779 37.0906 52.9342C37.1001 53.0178 37.1377 53.0958 37.1972 53.1552C38.5065 54.3257 39.8194 55.4922 41.1358 56.6548C41.2354 56.7365 41.359 56.7834 41.4877 56.7883C42.394 56.799 43.3002 56.7883 44.2055 56.799C44.3771 56.799 44.4454 56.7402 44.5083 56.5854C44.7097 56.0877 45.065 55.6678 45.522 55.387C45.979 55.1062 46.5138 54.9794 47.048 55.0252C47.5816 55.0765 48.0847 55.2975 48.4837 55.6559C48.8828 56.0142 49.1569 56.4912 49.2657 57.0168C49.6187 58.624 48.2614 60.1351 46.6173 60.007C45.5958 59.9258 44.6778 59.1527 44.4326 58.2204C44.3867 58.0484 44.3089 57.9854 44.1212 57.9876C43.1798 57.9982 42.2383 57.9876 41.2979 57.995C41.013 58.0082 40.7346 57.9076 40.5238 57.7152C39.0958 56.4338 37.6635 55.1612 36.2269 53.8974C36.1281 53.8157 36.0483 53.7133 35.993 53.5975C35.9378 53.4817 35.9085 53.3552 35.9071 53.2268C35.8282 50.6777 35.7386 48.1275 35.6586 45.5784C35.667 45.5101 35.6498 45.4411 35.6105 45.3847C35.5711 45.3283 35.5123 45.2885 35.4454 45.273C34.943 45.0941 34.5125 44.7561 34.2191 44.3102C33.9257 43.8643 33.7854 43.3347 33.8194 42.8018C33.8983 41.6015 34.7076 40.6916 35.8367 40.4705C35.967 40.4505 36.0984 40.438 36.2301 40.4332Z" fill="url(#paint6_linear_985_8209)"/>
<path d="M48.9812 50.3295C48.7679 51.138 48.2998 51.7242 47.545 52.0596C47.0826 52.2587 46.5712 52.3143 46.077 52.2191C45.5827 52.1239 45.1284 51.8823 44.7728 51.5256C44.4241 51.1675 44.1895 50.7137 44.099 50.2217C44.0084 49.7298 44.0659 49.222 44.2642 48.7629C44.4635 48.3144 44.7899 47.9343 45.2029 47.6698C45.6159 47.4054 46.0973 47.2682 46.5875 47.2753C47.0963 47.2781 47.5916 47.4394 48.0048 47.7367C48.4181 48.034 48.7287 48.4528 48.8937 48.9348C48.9059 48.9987 48.9422 49.0555 48.9949 49.0934C49.0477 49.1314 49.113 49.1476 49.1773 49.1388C53.4465 49.1331 57.7163 49.1331 61.9869 49.1388C62.0165 49.1432 62.0467 49.1417 62.0758 49.1343C62.1048 49.1269 62.1321 49.1139 62.1561 49.0959C62.1801 49.078 62.2003 49.0554 62.2155 49.0296C62.2308 49.0038 62.2408 48.9752 62.2449 48.9455C62.4072 48.4108 62.7441 47.9461 63.2015 47.626C63.659 47.3059 64.2105 47.1489 64.7676 47.1803C65.3338 47.2201 65.8701 47.45 66.2899 47.8326C66.7097 48.2153 66.9885 48.7285 67.0813 49.2894C67.1671 49.8472 67.0622 50.4176 66.7837 50.9082C66.5052 51.3988 66.0694 51.7808 65.547 51.9923C65.2371 52.1202 64.9043 52.1834 64.5691 52.1781C64.2339 52.1728 63.9033 52.0991 63.5975 51.9615C63.2917 51.8238 63.0172 51.6252 62.7906 51.3776C62.5641 51.1301 62.3904 50.8388 62.2801 50.5218C62.2268 50.3744 62.166 50.3146 62.0008 50.3146C57.7053 50.3196 53.4088 50.3196 49.1112 50.3146C49.076 50.321 49.0409 50.3253 48.9812 50.3295Z" fill="url(#paint7_linear_985_8209)"/>
<defs>
<linearGradient id="paint0_linear_985_8209" x1="-5.5" y1="41" x2="92" y2="41" gradientUnits="userSpaceOnUse">
<stop stop-color="#DE30D7"/>
<stop offset="1" stop-color="#193062"/>
</linearGradient>
<linearGradient id="paint1_linear_985_8209" x1="-5.5" y1="41" x2="92" y2="41" gradientUnits="userSpaceOnUse">
<stop stop-color="#DE30D7"/>
<stop offset="1" stop-color="#193062"/>
</linearGradient>
<linearGradient id="paint2_linear_985_8209" x1="-5.5" y1="41" x2="92" y2="41" gradientUnits="userSpaceOnUse">
<stop stop-color="#DE30D7"/>
<stop offset="1" stop-color="#193062"/>
</linearGradient>
<linearGradient id="paint3_linear_985_8209" x1="-5.5" y1="41" x2="92" y2="41" gradientUnits="userSpaceOnUse">
<stop stop-color="#DE30D7"/>
<stop offset="1" stop-color="#193062"/>
</linearGradient>
<linearGradient id="paint4_linear_985_8209" x1="-5.5" y1="41" x2="92" y2="41" gradientUnits="userSpaceOnUse">
<stop stop-color="#DE30D7"/>
<stop offset="1" stop-color="#193062"/>
</linearGradient>
<linearGradient id="paint5_linear_985_8209" x1="-5.5" y1="41" x2="92" y2="41" gradientUnits="userSpaceOnUse">
<stop stop-color="#DE30D7"/>
<stop offset="1" stop-color="#193062"/>
</linearGradient>
<linearGradient id="paint6_linear_985_8209" x1="-5.5" y1="41" x2="92" y2="41" gradientUnits="userSpaceOnUse">
<stop stop-color="#DE30D7"/>
<stop offset="1" stop-color="#193062"/>
</linearGradient>
<linearGradient id="paint7_linear_985_8209" x1="-5.5" y1="41" x2="92" y2="41" gradientUnits="userSpaceOnUse">
<stop stop-color="#DE30D7"/>
<stop offset="1" stop-color="#193062"/>
</linearGradient>
</defs>
</svg>
