<svg width="464" height="405" viewBox="0 0 464 405" fill="none" xmlns="http://www.w3.org/2000/svg">
<path fill-rule="evenodd" clip-rule="evenodd" d="M318.581 53.5586C313.261 53.6748 308.026 52.2034 303.546 49.332C299.065 46.4607 295.541 42.3196 293.424 37.4371C291.307 32.5546 290.693 27.152 291.659 21.9187C292.625 16.6855 295.129 11.859 298.85 8.05468C302.572 4.25035 307.342 1.64077 312.552 0.559079C317.763 -0.522617 323.178 -0.0273926 328.106 1.98139C333.034 3.99017 337.252 7.42149 340.221 11.8376C343.191 16.2538 344.778 21.4546 344.779 26.7764C344.841 33.7975 342.12 40.5575 337.21 45.5769C337.021 45.7702 336.829 45.9603 336.635 46.1472C364.23 102.401 401.08 177.244 406.435 187.683C407.873 187.84 409.29 188.2 410.641 188.759C413.459 189.926 415.864 191.907 417.55 194.449C419.235 196.991 420.123 199.978 420.101 203.028C420.116 205.009 419.741 206.974 418.997 208.81C418.253 210.647 417.155 212.319 415.765 213.731C414.375 215.142 412.72 216.266 410.895 217.039C409.071 217.811 407.112 218.217 405.13 218.232C402.081 218.302 399.081 217.46 396.513 215.814C393.945 214.168 391.927 211.794 390.717 208.994C389.507 206.194 389.16 203.098 389.72 200.1C390.154 197.778 391.117 195.597 392.523 193.722C385.965 182.196 369.836 149.375 322.669 53.1876C321.326 53.4152 319.96 53.5405 318.581 53.5586ZM397.993 200.337C397.933 200.318 397.873 200.3 397.814 200.281C397.317 201.543 397.172 202.919 397.398 204.261C397.646 205.736 398.33 207.102 399.361 208.184C400.393 209.266 401.725 210.015 403.185 210.333C404.646 210.651 406.169 210.525 407.557 209.97C408.945 209.416 410.136 208.458 410.975 207.22C411.814 205.983 412.263 204.523 412.265 203.028C412.296 201.093 411.566 199.224 410.231 197.824C408.896 196.423 407.064 195.604 405.13 195.543C403.637 195.473 402.157 195.851 400.881 196.63C399.842 197.264 398.977 198.14 398.356 199.177L397.993 200.337ZM318.581 15.6656C316.21 15.4538 313.831 15.9708 311.761 17.1471C309.692 18.3235 308.031 20.1033 306.999 22.2489C305.968 24.3944 305.617 26.8037 305.991 29.1545C306.365 31.5053 307.448 33.6858 309.095 35.4048C310.742 37.1238 312.874 38.2996 315.206 38.7748C317.539 39.25 319.961 39.0021 322.149 38.0642C324.337 37.1263 326.186 35.543 327.451 33.526C328.715 31.509 329.334 29.1543 329.224 26.7764C329.256 23.9003 328.16 21.1259 326.17 19.0488C324.18 16.9717 321.456 15.7572 318.581 15.6656ZM405.131 41.979C402.114 42.0255 399.152 41.1735 396.621 39.5313C394.09 37.8891 392.105 35.5312 390.919 32.7574C389.732 29.9836 389.397 26.9193 389.957 23.9548C390.517 20.9902 391.946 18.2592 394.063 16.1094C396.18 13.9596 398.888 12.4883 401.844 11.8825C404.799 11.2766 407.868 11.5637 410.66 12.7073C413.452 13.8509 415.84 15.7993 417.521 18.3044C419.203 20.8096 420.101 23.7582 420.101 26.7751C420.116 28.7564 419.741 30.7212 418.997 32.5575C418.253 34.3939 417.155 36.0658 415.765 37.4776C415.045 38.2086 414.254 38.8625 413.406 39.4303L444.322 100.106C444.546 100.049 444.771 99.9979 444.997 99.9514C447.953 99.3456 451.022 99.6327 453.814 100.776C456.606 101.92 458.994 103.868 460.675 106.373C462.357 108.879 463.254 111.827 463.255 114.844C463.27 116.825 462.895 118.79 462.151 120.627C461.407 122.463 460.309 124.135 458.919 125.547C457.529 126.958 455.874 128.082 454.049 128.855C452.225 129.627 450.266 130.033 448.285 130.048C445.268 130.094 442.306 129.242 439.775 127.6C437.244 125.958 435.259 123.6 434.072 120.826C432.885 118.053 432.551 114.988 433.111 112.024C433.671 109.059 435.1 106.328 437.217 104.178C438.254 103.125 439.434 102.234 440.715 101.528L409.95 41.1492C408.402 41.6853 406.774 41.9664 405.131 41.979ZM405.131 19.407C403.177 19.407 401.303 20.1831 399.921 21.5649C398.539 22.9467 397.763 24.821 397.763 26.7751C397.763 28.7293 398.539 30.6032 399.921 31.985C401.303 33.3668 403.177 34.143 405.131 34.143C407.085 34.143 408.959 33.3668 410.341 31.985C411.723 30.6032 412.499 28.7293 412.499 26.7751C412.499 24.821 411.723 22.9467 410.341 21.5649C408.959 20.1831 407.085 19.407 405.131 19.407ZM266.656 127.656C269.202 129.283 272.175 130.115 275.196 130.046C277.208 130.015 279.173 129.582 280.983 128.794L310.187 189.808C309.085 190.475 308.066 191.281 307.157 192.211C305.022 194.397 303.589 197.17 303.043 200.175C302.496 203.181 302.86 206.281 304.088 209.078C305.317 211.875 307.353 214.241 309.936 215.872C312.519 217.503 315.53 218.325 318.584 218.232C322.565 218.17 326.36 216.537 329.142 213.689C331.924 210.841 333.468 207.009 333.437 203.027C333.459 199.973 332.567 196.981 330.876 194.437C329.185 191.893 326.772 189.912 323.947 188.75C321.123 187.587 318.015 187.296 315.023 187.912C314.601 187.999 314.185 188.104 313.774 188.225L284.321 126.794C284.824 126.397 285.303 125.966 285.755 125.503C288.537 122.655 290.081 118.823 290.049 114.842C290.049 111.82 289.147 108.867 287.461 106.359C285.774 103.852 283.378 101.904 280.58 100.765C277.781 99.625 274.706 99.3449 271.748 99.9605C268.789 100.576 266.081 102.059 263.97 104.221C261.858 106.383 260.438 109.124 259.892 112.096C259.346 115.068 259.697 118.136 260.902 120.907C262.107 123.679 264.11 126.028 266.656 127.656ZM272.43 108.07C273.304 107.691 274.244 107.489 275.196 107.474C276.149 107.489 277.089 107.691 277.963 108.07C278.836 108.449 279.627 108.996 280.29 109.68C280.952 110.364 281.473 111.172 281.824 112.058C282.174 112.944 282.346 113.89 282.33 114.842C282.362 116.776 281.632 118.646 280.297 120.046C278.962 121.446 277.13 122.266 275.196 122.327C273.263 122.266 271.431 121.446 270.096 120.046C268.761 118.646 268.03 116.776 268.062 114.842C268.047 113.89 268.219 112.944 268.569 112.058C268.919 111.172 269.44 110.364 270.103 109.68C270.765 108.996 271.556 108.449 272.43 108.07ZM448.285 107.476C447.332 107.491 446.392 107.694 445.518 108.072C444.645 108.451 443.854 108.998 443.191 109.682C442.529 110.366 442.008 111.174 441.657 112.06C441.307 112.946 441.135 113.892 441.15 114.844C441.15 116.736 441.902 118.551 443.24 119.889C444.578 121.227 446.392 121.978 448.285 121.978C450.177 121.978 451.991 121.227 453.329 119.889C454.667 118.551 455.419 116.736 455.419 114.844C455.434 113.892 455.262 112.946 454.912 112.06C454.562 111.174 454.04 110.366 453.378 109.682C452.715 108.998 451.925 108.451 451.051 108.072C450.177 107.694 449.237 107.491 448.285 107.476ZM50.2076 215.814C52.7754 217.46 55.776 218.302 58.8251 218.232C60.3506 218.22 61.8629 217.977 63.3108 217.513L132.626 357.087C130.521 358.258 128.583 359.73 126.877 361.468C123.363 365.048 120.995 369.593 120.074 374.524C119.153 379.454 119.72 384.548 121.704 389.155C123.688 393.762 126.999 397.674 131.214 400.393C135.429 403.112 140.359 404.514 145.374 404.421C148.661 404.39 151.909 403.713 154.934 402.427C157.959 401.141 160.701 399.271 163.003 396.925C165.306 394.58 167.124 391.803 168.353 388.755C169.582 385.707 170.199 382.446 170.168 379.159C170.167 374.143 168.673 369.241 165.876 365.077C163.079 360.913 159.106 357.676 154.462 355.778C149.819 353.881 144.716 353.409 139.803 354.422C138.571 354.676 137.365 355.021 136.193 355.451L66.8601 215.841C67.7999 215.237 68.672 214.53 69.4593 213.731C70.8494 212.319 71.9479 210.647 72.6919 208.81C73.4359 206.974 73.8109 205.009 73.7954 203.028C73.8179 199.978 72.9296 196.991 71.2442 194.449C69.5589 191.907 67.1532 189.926 64.3352 188.759C61.5172 187.592 58.4152 187.293 55.4262 187.9C52.4373 188.507 49.6973 189.992 47.5575 192.166C45.4176 194.339 43.9752 197.102 43.4148 200.1C42.8543 203.098 43.2013 206.194 44.4114 208.994C45.6216 211.794 47.6398 214.168 50.2076 215.814ZM54.5755 196.63C55.8517 195.851 57.3318 195.473 58.8251 195.543C60.7589 195.604 62.591 196.423 63.9258 197.824C65.2606 199.224 65.991 201.093 65.9594 203.028C65.9577 204.523 65.5085 205.983 64.6695 207.22C63.8304 208.458 62.6401 209.416 61.2518 209.97C59.8635 210.525 58.3408 210.651 56.8801 210.333C55.4194 210.015 54.0876 209.266 53.0561 208.184C52.0247 207.102 51.3409 205.736 51.0929 204.261C50.8449 202.787 51.0442 201.272 51.6649 199.912C52.2856 198.552 53.2993 197.409 54.5755 196.63ZM145.372 218.233C142.347 218.233 139.389 217.337 136.872 215.659C134.355 213.98 132.392 211.594 131.229 208.802C130.066 206.009 129.756 202.934 130.337 199.966C130.919 196.997 132.367 194.267 134.498 192.119C136.629 189.972 139.348 188.504 142.312 187.9C145.276 187.295 148.353 187.582 151.154 188.724C153.956 189.865 156.357 191.811 158.054 194.315C159.752 196.819 160.67 199.77 160.693 202.795C160.724 204.821 160.35 206.833 159.593 208.712C158.835 210.592 157.71 212.301 156.282 213.739C155.421 214.608 154.459 215.367 153.42 216.002L182.671 276.968C183.499 276.638 184.358 276.381 185.239 276.2C188.195 275.594 191.264 275.882 194.055 277.025C196.847 278.169 199.236 280.117 200.917 282.622C202.598 285.127 203.496 288.076 203.497 291.093C203.512 293.074 203.137 295.039 202.393 296.875C201.649 298.712 200.55 300.384 199.16 301.795C197.77 303.207 196.116 304.331 194.291 305.104C192.467 305.876 190.508 306.282 188.526 306.297C185.51 306.343 182.547 305.491 180.017 303.849C177.486 302.207 175.501 299.849 174.314 297.075C173.127 294.301 172.793 291.237 173.353 288.273C173.913 285.308 175.342 282.577 177.459 280.427C178.001 279.877 178.582 279.37 179.196 278.912L149.88 217.586C148.421 218.026 146.901 218.245 145.372 218.233ZM145.372 195.544C143.879 195.474 142.399 195.852 141.122 196.631C139.846 197.41 138.832 198.553 138.212 199.913C137.591 201.273 137.392 202.788 137.64 204.262C137.888 205.736 138.572 207.102 139.603 208.185C140.634 209.267 141.966 210.016 143.427 210.334C144.888 210.652 146.41 210.526 147.798 209.971C149.187 209.417 150.377 208.459 151.216 207.221C152.055 205.984 152.505 204.524 152.506 203.029C152.538 201.094 151.808 199.225 150.473 197.824C149.138 196.424 147.306 195.605 145.372 195.544ZM223.302 215.814C225.87 217.46 228.87 218.302 231.92 218.232C235.911 218.171 239.719 216.542 242.52 213.697C245.32 210.852 246.89 207.02 246.89 203.028C246.912 199.978 246.024 196.991 244.339 194.449C242.653 191.907 240.248 189.926 237.43 188.759C234.612 187.592 231.509 187.293 228.52 187.9C225.531 188.507 222.792 189.992 220.652 192.166C218.512 194.339 217.069 197.102 216.509 200.1C215.948 203.098 216.296 206.194 217.506 208.994C218.716 211.794 220.734 214.168 223.302 215.814ZM227.24 198.018C228.446 196.65 230.11 195.77 231.92 195.543C233.729 195.77 235.393 196.65 236.599 198.018C237.805 199.385 238.471 201.146 238.471 202.97C238.471 204.793 237.805 206.554 236.599 207.921C235.393 209.288 233.729 210.168 231.92 210.396C230.11 210.168 228.446 209.288 227.24 207.921C226.034 206.554 225.368 204.793 225.368 202.97C225.368 201.146 226.034 199.385 227.24 198.018ZM318.584 195.542C317.087 195.449 315.596 195.807 314.305 196.57C313.015 197.333 311.983 198.467 311.344 199.824C310.705 201.181 310.488 202.698 310.722 204.18C310.956 205.661 311.63 207.038 312.655 208.132C313.681 209.226 315.012 209.987 316.475 210.316C317.938 210.645 319.467 210.526 320.862 209.976C322.257 209.426 323.454 208.469 324.299 207.23C325.145 205.991 325.598 204.527 325.601 203.027C325.634 201.112 324.919 199.26 323.609 197.863C322.299 196.466 320.497 195.633 318.584 195.542ZM6.92818 303.849C8.99571 305.19 11.3511 306.005 13.7889 306.233L46.1131 370.474C44.8938 372.226 44.0513 374.223 43.6516 376.339C43.0917 379.303 43.4265 382.367 44.6132 385.141C45.7999 387.915 47.7849 390.273 50.3158 391.915C52.8467 393.557 55.8088 394.409 58.8254 394.363C60.8067 394.348 62.7657 393.942 64.5903 393.17C66.4149 392.397 68.0694 391.273 69.4595 389.861C70.8496 388.45 71.9481 386.778 72.6921 384.941C73.4361 383.105 73.8111 381.14 73.7957 379.159C73.7953 376.142 72.8973 373.193 71.2161 370.688C69.5349 368.183 67.1464 366.235 64.3546 365.091C63.0923 364.574 61.7735 364.232 60.4341 364.069L27.9374 299.484C28.4758 298.663 28.9341 297.79 29.3045 296.875C30.0485 295.039 30.4235 293.074 30.4081 291.093C30.4077 288.076 29.5099 285.127 27.8287 282.622C26.1474 280.117 23.759 278.169 20.9671 277.025C18.1753 275.882 15.1063 275.594 12.1508 276.2C9.19526 276.806 6.48688 278.277 4.37017 280.427C2.25345 282.577 0.824173 285.308 0.264204 288.273C-0.295765 291.237 0.0388488 294.301 1.22556 297.075C2.41227 299.849 4.39731 302.207 6.92818 303.849ZM15.438 283.725C13.4838 283.725 11.6097 284.501 10.2279 285.883C8.84608 287.264 8.06978 289.138 8.06978 291.093C8.06978 293.047 8.84608 294.921 10.2279 296.303C11.6097 297.685 13.4838 298.461 15.438 298.461C17.3921 298.461 19.2663 297.685 20.648 296.303C22.0298 294.921 22.8061 293.047 22.8061 291.093C22.8061 289.138 22.0298 287.264 20.648 285.883C19.2663 284.501 17.3921 283.725 15.438 283.725ZM183.316 285.883C184.698 284.501 186.572 283.725 188.526 283.725C190.481 283.725 192.354 284.501 193.736 285.883C195.118 287.264 195.894 289.138 195.894 291.093C195.894 293.047 195.118 294.921 193.736 296.303C192.354 297.685 190.481 298.461 188.526 298.461C186.572 298.461 184.698 297.685 183.316 296.303C181.935 294.921 181.158 293.047 181.158 291.093C181.158 289.138 181.935 287.264 183.316 285.883ZM58.8254 371.791C56.8713 371.791 54.9973 372.567 53.6155 373.949C52.2337 375.33 51.4574 377.204 51.4574 379.159C51.4574 381.113 52.2337 382.987 53.6155 384.369C54.9973 385.751 56.8713 386.527 58.8254 386.527C60.7795 386.527 62.6537 385.751 64.0355 384.369C65.4173 382.987 66.1936 381.113 66.1936 379.159C66.1936 377.204 65.4173 375.33 64.0355 373.949C62.6537 372.567 60.7795 371.791 58.8254 371.791ZM138.593 372.144C140.391 370.345 142.831 369.335 145.374 369.335C147.918 369.335 150.357 370.345 152.155 372.144C153.954 373.942 154.964 376.382 154.964 378.925C154.964 381.469 153.954 383.908 152.155 385.706C150.357 387.505 147.918 388.515 145.374 388.515C142.831 388.515 140.391 387.505 138.593 385.706C136.794 383.908 135.784 381.469 135.784 378.925C135.784 376.382 136.794 373.942 138.593 372.144Z" fill="#DFFE06"/>
</svg>
