<?xml version="1.0" encoding="UTF-8"?><svg id="Horizontal_logo" xmlns="http://www.w3.org/2000/svg" viewBox="0 0 1500 200"><defs><style>.cls-1{fill:none;}.cls-2{fill:#e7ff56;}.cls-3{fill:#e7ff46;}.cls-4{fill:#e7fa3f;}.cls-5{fill:#e7ee51;}.cls-6{fill:#e7ef52;}.cls-7{fill:#e7ef54;}.cls-8{fill:#fff;}.cls-9{fill:#ffc807;}.cls-10{fill:#ff4bed;}.cls-11{fill:#ff4bd7;}.cls-12{fill:#fcff54;}.cls-13{fill:#ff44cd;}.cls-14{fill:#d7fb54;}.cls-15{fill:#d7fd52;}.cls-16{fill:#d7fd51;}.cls-17{fill:#45d6ea;}.cls-18{fill:#45edd7;}.cls-19{fill:#46d5e6;}.cls-20{fill:#46d5e8;}.cls-21{fill:#46eded;}.cls-22{fill:#46e6cd;}</style></defs><g id="sykhe_AI"><path class="cls-8" d="m322.66,158.31v-40.92h13.69c30.6,0,41.07-19.98,41.07-37.54,0-16.11-10.47-35.93-41.07-35.93h-44.77v114.38h31.08Zm5.96-61.86h-5.96v-30.77h5.96c12.08,0,16.43,6.44,16.43,15.47,0,8.38-4.03,15.31-16.43,15.31Z"/><path class="cls-8" d="m494.15,161.05c27.54,0,46.22-16.76,46.22-38.34,0-19.33-11.92-28.36-29.47-33.51l-16.11-4.67c-8.7-2.58-11.92-5.8-11.92-10.79,0-4.51,3.54-7.9,11.6-7.9,7.09,0,14.82,3.54,23.03,14.18l22.06-19.17c-9.02-11.28-23.35-19.65-43.48-19.65-25.29,0-43.81,13.37-43.81,36.89,0,16.76,10.95,27.39,29.63,32.7l15.14,4.35c8.86,2.58,11.92,4.99,11.92,11.28s-6.76,9.34-12.4,9.34c-11.43,0-19.16-4.67-24.32-15.95l-25.29,13.69c10.31,21.59,30.12,27.55,47.19,27.55Z"/><path class="cls-8" d="m668.38,158.31v-42.21l31.57-72.17h-33.66l-13.21,45.43-14.17-45.43h-33.18l31.57,72.17v42.21h31.08Z"/><path class="cls-8" d="m803.88,111.91l18.2,46.4h35.43l-29.79-68.79,26.89-45.59h-34.95l-22.07,43.66v-43.66h-31.08v114.38h31.08v-34.64l6.28-11.76Z"/><path class="cls-8" d="m1012.9,158.31V43.92h-31.08v44.79h-21.26v-44.79h-31.08v114.38h31.08v-46.08h21.26v46.08h31.08Z"/><path class="cls-8" d="m1166.6,68.09v-24.16h-73.6v114.38h74.73v-24.16h-43.64v-22.4h39.78v-23.68h-39.78v-19.98h42.52Z"/><g><path class="cls-8" d="m1321.94,43.13h41.34l31.57,115.18h-31.8l-5.91-26.93h-29.07l-5.91,26.93h-31.57l31.34-115.18Zm31.8,71.87l-7.95-36.34c-1.14-5.52-1.82-10.22-2.73-16.39h-.68c-.91,6.17-1.82,10.87-2.95,16.39l-7.95,36.34h22.26Z"/><path class="cls-8" d="m1465.03,158.31V43.13h31.34v115.18h-31.34Z"/></g></g><g id="Motif"><path class="cls-1" d="m64.85,113.72c0,1.4.07,2.78.2,4.15,7.56,6.91,17.61,11.15,28.65,11.2,12.85-7.51,21.43-21.39,21.43-37.18,0-5.66-1.1-11.08-3.11-16.05-3.11-1.9-6.48-3.4-10.03-4.46-21.16,3.01-37.14,21-37.14,42.34Z"/><path class="cls-12" d="m95.88,154.73c1.02.3,2.07.56,3.12.79,4.09-.89,7.98-2.38,11.55-4.37-3.38.87-6.87,1.47-10.44,1.8-1.39.64-2.8,1.24-4.24,1.78Z"/><path class="cls-9" d="m102.02,71.38s-.02,0-.03,0c3.55,1.05,6.92,2.55,10.03,4.46h0c-.68-1.68-1.46-3.31-2.34-4.88-.46-.01-.93-.02-1.4-.02-2.13,0-4.22.15-6.26.44Z"/><path class="cls-9" d="m57.25,157.61c-9.47-2.05-18.2-6.08-25.73-11.64,11.45,20.69,33.34,34.68,58.48,34.68,3.07,0,6.1-.21,9.06-.62-16.62-2.25-31.32-10.48-41.81-22.43Z"/><path class="cls-9" d="m85.03,50.84c-3.72-1.19-7.66-1.89-11.75-2.03-10.33,5.7-18.05,15.55-20.92,27.3,7.89-11.48,19.29-20.41,32.67-25.27Z"/><path class="cls-9" d="m110.58,151.14s-.01,0-.02,0c-3.58,1.99-7.46,3.48-11.55,4.37,0,0,.01,0,.02,0,2.98.64,6.08.97,9.26.97,21.58,0,39.19-15.39,42.77-35.31-8.97,14.65-23.41,25.58-40.48,29.95Z"/><path class="cls-10" d="m80.71,25.2c3.04-.42,6.14-.64,9.29-.64,25.8,0,48.19,14.6,59.37,35.98,3.34,2.54,6.44,5.38,9.25,8.48-7.61-28.61-33.69-49.68-64.7-49.68-9.37,0-18.29,1.92-26.38,5.4,1.38-.08,2.77-.13,4.18-.13,3.05,0,6.06.2,9,.59Z"/><path class="cls-11" d="m123.31,48.43c9.63,2.16,18.47,6.36,26.05,12.12-11.18-21.39-33.57-35.98-59.37-35.98-3.15,0-6.25.22-9.29.64,17.02,2.25,32.03,10.81,42.61,23.23Z"/><path class="cls-11" d="m68.98,48.86c-20.76,1.27-37.45,16.98-40.28,36.98,7.59-17.4,22.24-30.96,40.28-36.98Z"/><path class="cls-13" d="m52.36,76.11c2.87-11.75,10.59-21.6,20.92-27.3-.52-.02-1.04-.03-1.56-.03-.92,0-1.82.03-2.73.08-18.04,6.02-32.69,19.58-40.28,36.98-.28,1.98-.42,3.99-.42,6.04,0,12.01,4.97,22.92,13.01,30.76-.39-2.92-.6-5.9-.6-8.93,0-13.94,4.3-26.89,11.67-37.61Z"/><path class="cls-10" d="m65.05,117.86c.34,3.42,1.08,6.73,2.2,9.89,4.58,2.88,9.75,4.92,15.29,5.89,3.98-1.01,7.72-2.57,11.17-4.58-11.04-.05-21.09-4.29-28.65-11.2Z"/><path class="cls-11" d="m100.12,152.95c3.57-.33,7.05-.94,10.44-1.8,0,0,.01,0,.02,0,10.44-5.83,18.28-15.96,21.08-28.13-6.89,13.12-18,23.69-31.54,29.94Z"/><path class="cls-11" d="m82.54,133.64c-5.54-.97-10.71-3.01-15.29-5.89.89,2.52,2.01,4.94,3.35,7.23.37,0,.74.01,1.11.01,3.74,0,7.37-.47,10.83-1.35Z"/><path class="cls-13" d="m138.75,83.23c.37,2.83.55,5.72.55,8.66,0,11.23-2.76,21.81-7.65,31.12-2.8,12.18-10.64,22.31-21.08,28.13,17.07-4.37,31.51-15.31,40.48-29.95.44-2.43.66-4.93.66-7.47,0-11.86-4.94-22.69-12.96-30.49Z"/><path class="cls-21" d="m65.05,117.86c-.13-1.37-.2-2.75-.2-4.15,0-21.34,15.98-39.32,37.14-42.34,0,0,.02,0,.03,0-3.82-1.14-7.86-1.75-12.02-1.75-16.6,0-31.17,9.67-38.24,23.93,1.64,9.56,6.44,18.03,13.3,24.3Z"/><path class="cls-22" d="m90,69.63c4.16,0,8.2.61,12.02,1.75,2.04-.29,4.13-.44,6.26-.44.47,0,.94,0,1.4.02-5.3-9.45-14.08-16.74-24.66-20.12-13.38,4.86-24.78,13.78-32.67,25.27-.8,3.26-1.22,6.67-1.22,10.18,0,2.48.21,4.91.62,7.28,7.07-14.26,21.64-23.93,38.24-23.93Z"/><path class="cls-21" d="m158.61,69.02c1.47,5.51,2.25,11.29,2.25,17.26,0,8.05-1.42,15.77-4.03,22.92.07,1.28.11,2.56.11,3.86,0,34.22-25.19,62.51-57.86,66.98,3.01.41,6.08.62,9.21.62,37.33,0,67.6-29.97,67.6-66.94,0-17.18-6.53-32.84-17.27-44.69Z"/><path class="cls-18" d="m95.88,154.73c-1.72.66-3.48,1.24-5.26,1.76,2.88-.04,5.69-.37,8.41-.97,0,0-.01,0-.02,0-1.06-.23-2.1-.49-3.12-.79Z"/><path class="cls-22" d="m156.94,113.06c0-1.29-.04-2.58-.11-3.86-1.53,4.21-3.48,8.22-5.78,11.98-3.58,19.92-21.19,35.31-42.77,35.31-3.19,0-6.28-.34-9.26-.97-2.72.59-5.53.93-8.41.97-6,1.73-12.34,2.67-18.9,2.67-4.96,0-9.8-.53-14.46-1.54,10.49,11.95,25.19,20.18,41.81,22.43,0,0,.01,0,.02,0,32.68-4.48,57.86-32.76,57.86-66.98Z"/><path class="cls-17" d="m149.37,60.55c4.84,9.26,7.57,19.79,7.57,30.96,0,3.65-.29,7.23-.85,10.72.37,2.29.62,4.61.75,6.97,2.61-7.15,4.03-14.87,4.03-22.92,0-5.97-.78-11.75-2.25-17.26-2.81-3.1-5.9-5.94-9.25-8.48Z"/><path class="cls-20" d="m131.07,59.68c13.07,10.27,22.27,25.32,25.01,42.55.56-3.49.85-7.07.85-10.72,0-11.17-2.74-21.7-7.57-30.96-7.58-5.75-16.43-9.95-26.05-12.12,2.95,3.47,5.55,7.23,7.76,11.25Z"/><path class="cls-19" d="m131.07,59.68c3.93,7.16,6.59,15.11,7.68,23.55,8.02,7.79,12.96,18.62,12.96,30.49,0,2.54-.23,5.04-.66,7.47,2.3-3.76,4.25-7.78,5.78-11.98-.13-2.36-.38-4.68-.75-6.97-2.75-17.23-11.95-32.29-25.01-42.55Z"/><path class="cls-17" d="m51.75,93.56c-1.35,2.72-2.43,5.61-3.19,8.63,2.76,10.72,9.56,19.81,18.69,25.55-1.11-3.15-1.86-6.46-2.2-9.89-6.86-6.27-11.66-14.74-13.3-24.3Z"/><path class="cls-20" d="m48.56,102.19c-.88,3.47-1.35,7.11-1.35,10.87,0,5.81,1.12,11.33,3.13,16.37,6,3.37,12.88,5.36,20.24,5.55-1.33-2.29-2.46-4.71-3.35-7.23-9.13-5.74-15.93-14.83-18.69-25.55Z"/><path class="cls-19" d="m48.56,102.19c.76-3.02,1.84-5.91,3.19-8.63-.41-2.36-.62-4.8-.62-7.28,0-3.51.42-6.92,1.22-10.18-7.36,10.72-11.67,23.67-11.67,37.61,0,3.03.2,6.01.6,8.93,2.7,2.63,5.75,4.92,9.07,6.79-2.02-5.04-3.13-10.56-3.13-16.37,0-3.76.47-7.4,1.35-10.87Z"/><path class="cls-2" d="m112.03,75.83h0c2.01,4.97,3.11,10.39,3.11,16.05,0,15.78-8.58,29.67-21.43,37.18.07,0,.14,0,.21,0,12.83,0,24.34-5.65,32.19-14.6,2.38-3.74,4.2-7.87,5.33-12.27-2.83-11.2-9.95-20.59-19.4-26.36Z"/><path class="cls-2" d="m23.91,102.23c-.56-3.49-.85-7.07-.85-10.72,0-16.23,5.77-31.1,15.38-42.69,7.15-10.57,17.24-18.99,29.1-24.08C32.15,26.89,4.11,56.13,4.11,91.88c0,22.17,10.77,41.83,27.4,54.09-5.39-9.74-8.45-20.96-8.45-32.91,0-3.69.29-7.3.85-10.83Z"/><path class="cls-3" d="m126.1,114.47c2.37-2.7,4.4-5.71,6.03-8.94-.19-1.13-.43-2.23-.71-3.33-1.13,4.41-2.95,8.53-5.33,12.27Z"/><path class="cls-3" d="m93.92,153.23c-.81,0-1.62-.01-2.43-.04,1.42.59,2.89,1.1,4.39,1.54,1.44-.55,2.85-1.14,4.24-1.78-2.04.19-4.11.28-6.2.28Z"/><path class="cls-3" d="m38.43,48.82c-9.6,11.59-15.38,26.47-15.38,42.69,0,3.65.29,7.23.85,10.72.68-4.24,1.74-8.35,3.16-12.29-.07-1.21-.1-2.43-.1-3.66,0-13.88,4.22-26.77,11.46-37.47Z"/><path class="cls-3" d="m103.84,46.91c1.47-.09,2.95-.14,4.44-.14.71,0,1.42.01,2.13.03-5.08-2.12-10.65-3.3-16.5-3.3s-10.94,1.07-15.84,3.03c3.87-.7,7.85-1.07,11.92-1.07,4.75,0,9.38.5,13.85,1.45Z"/><path class="cls-4" d="m112.03,75.83c9.46,5.77,16.57,15.16,19.4,26.36.28,1.09.51,2.2.71,3.33,2.92-5.78,4.56-12.32,4.56-19.24,0-1.76-.11-3.49-.31-5.19-7.22-6.04-16.48-9.82-26.7-10.13.88,1.57,1.66,3.2,2.34,4.88Z"/><path class="cls-4" d="m42.49,129.15c-8.96-10.74-14.62-24.33-15.42-39.2-1.42,3.94-2.49,8.05-3.16,12.29-.56,3.53-.85,7.14-.85,10.83,0,11.95,3.07,23.17,8.45,32.91,0,0,0,0,0,0,7.53,5.55,16.26,9.58,25.73,11.64-7.05-8.03-12.2-17.75-14.76-28.46Z"/><path class="cls-4" d="m85.03,50.84c5.93-2.15,12.25-3.5,18.82-3.93-4.47-.95-9.1-1.45-13.85-1.45-4.07,0-8.05.37-11.92,1.07-1.65.66-3.26,1.42-4.8,2.27,4.09.14,8.03.85,11.75,2.03Z"/><path class="cls-7" d="m38.43,48.82c10.41-12.57,25.33-21.26,42.28-23.61-2.94-.39-5.95-.59-9-.59-1.4,0-2.8.04-4.18.13-11.86,5.09-21.95,13.51-29.1,24.08Z"/><path class="cls-6" d="m68.98,48.86c2.95-.98,5.98-1.76,9.09-2.33,4.9-1.95,10.24-3.03,15.84-3.03s11.42,1.17,16.5,3.3c4.42.14,8.73.69,12.9,1.63-10.57-12.42-25.59-20.97-42.61-23.23-16.95,2.35-31.87,11.05-42.28,23.61-7.23,10.69-11.46,23.59-11.46,37.47,0,1.23.03,2.45.1,3.66.5-1.39,1.05-2.76,1.63-4.1,2.83-20,19.52-35.71,40.28-36.98Z"/><path class="cls-5" d="m28.28,91.88c0-2.05.14-4.07.42-6.04-.59,1.34-1.13,2.71-1.63,4.1.8,14.88,6.46,28.47,15.42,39.2-.51-2.13-.91-4.3-1.21-6.5-8.04-7.84-13.01-18.75-13.01-30.76Z"/><path class="cls-5" d="m73.27,48.81c1.54-.85,3.15-1.61,4.8-2.27-3.11.56-6.15,1.35-9.09,2.33.9-.06,1.81-.08,2.73-.08.52,0,1.04,0,1.56.03Z"/><path class="cls-7" d="m93.92,129.06c-.07,0-.14,0-.21,0-3.44,2.01-7.19,3.57-11.17,4.58,2.42.43,4.91.65,7.46.65,15.18,0,28.51-7.91,36.1-19.82-7.84,8.95-19.35,14.6-32.19,14.6Z"/><path class="cls-6" d="m132.14,105.52c-1.63,3.24-3.67,6.24-6.03,8.94-7.59,11.92-20.93,19.82-36.1,19.82-2.54,0-5.04-.22-7.46-.65-3.46.88-7.09,1.35-10.83,1.35-.37,0-.74,0-1.11-.01,4.71,8.09,12.04,14.55,20.89,18.21.81.03,1.62.04,2.43.04,2.09,0,4.16-.1,6.2-.28,13.54-6.25,24.65-16.82,31.54-29.94.73-3.19,1.12-6.52,1.12-9.94,0-2.58-.22-5.1-.64-7.54Z"/><path class="cls-5" d="m136.7,86.28c0,6.92-1.64,13.45-4.56,19.24.42,2.45.64,4.97.64,7.54,0,3.43-.39,6.76-1.12,9.94,4.89-9.31,7.65-19.89,7.65-31.12,0-2.93-.19-5.82-.55-8.66-.76-.74-1.55-1.45-2.37-2.14.21,1.7.31,3.44.31,5.19Z"/><path class="cls-15" d="m103.84,46.91c6.02,1.28,11.73,3.37,17.04,6.16-3.15-2.56-6.67-4.68-10.47-6.27-.71-.02-1.42-.03-2.13-.03-1.49,0-2.97.05-4.44.14Z"/><path class="cls-16" d="m85.03,50.84c10.58,3.38,19.36,10.66,24.66,20.12,10.22.32,19.48,4.09,26.7,10.13-1.36-11.28-7.12-21.2-15.5-28.02-5.3-2.79-11.02-4.88-17.04-6.16-6.57.42-12.89,1.77-18.82,3.93Z"/><path class="cls-15" d="m91.49,153.19c-11.48-.41-22.22-3.71-31.52-9.19,7.76,7.75,18.4,12.5,30.03,12.5.21,0,.41,0,.62,0,1.79-.52,3.54-1.1,5.26-1.76-1.5-.44-2.96-.95-4.39-1.54Z"/><path class="cls-16" d="m59.97,144c-6.65-3.92-12.56-8.95-17.48-14.85,2.55,10.71,7.7,20.43,14.76,28.46,4.66,1.01,9.5,1.54,14.46,1.54,6.56,0,12.9-.93,18.9-2.67-.21,0-.41,0-.62,0-11.63,0-22.27-4.75-30.03-12.5Z"/><path class="cls-14" d="m110.42,46.8c3.8,1.59,7.32,3.71,10.47,6.27,8.38,6.82,14.14,16.74,15.5,28.02.82.68,1.61,1.4,2.37,2.14-1.09-8.44-3.75-16.39-7.68-23.55-2.2-4.02-4.81-7.78-7.76-11.25-4.17-.94-8.48-1.49-12.9-1.63Z"/><path class="cls-14" d="m59.97,144c9.3,5.48,20.04,8.78,31.52,9.19-8.85-3.66-16.18-10.12-20.89-18.21-7.36-.18-14.25-2.18-20.24-5.55-3.32-1.87-6.37-4.15-9.07-6.79.3,2.2.7,4.37,1.21,6.5,4.92,5.89,10.83,10.93,17.48,14.85Z"/></g></svg>
