<svg width="120" height="120" viewBox="0 0 120 120" fill="none" xmlns="http://www.w3.org/2000/svg">
<g filter="url(#filter0_d_1001_2162)">
<path d="M20 40.2245C20 28.5025 29.5025 19 41.2245 19H78.7755C90.4975 19 100 28.5025 100 40.2245V77.7755C100 89.4975 90.4975 99 78.7755 99H41.2245C29.5025 99 20 89.4975 20 77.7755V40.2245Z" fill="white"/>
</g>
<path d="M39.2099 92.7056V90.6047H39.8916C41.4154 90.6047 41.9367 89.5791 41.9367 88.6775C41.9367 87.8504 41.4154 86.833 39.8916 86.833H37.6621V92.7056H39.2099ZM39.5067 89.5294H39.2099V87.9496H39.5067C40.1082 87.9496 40.3247 88.2805 40.3247 88.7437C40.3247 89.1738 40.1242 89.5294 39.5067 89.5294Z" fill="black"/>
<path d="M47.7039 92.8462C49.0753 92.8462 50.0056 91.986 50.0056 90.8777C50.0056 89.8851 49.4121 89.4219 48.538 89.1572L47.736 88.9174C47.3029 88.785 47.1425 88.6196 47.1425 88.3632C47.1425 88.1316 47.319 87.9579 47.72 87.9579C48.0728 87.9579 48.4578 88.1399 48.8668 88.6858L49.9655 87.7015C49.5164 87.1225 48.8026 86.6924 47.8002 86.6924C46.541 86.6924 45.6188 87.3789 45.6188 88.5865C45.6188 89.4467 46.1641 89.9926 47.0944 90.2656L47.8483 90.4889C48.2894 90.6212 48.4417 90.7453 48.4417 91.0679C48.4417 91.3988 48.1049 91.5476 47.8242 91.5476C47.2548 91.5476 46.8699 91.3078 46.6132 90.7288L45.3541 91.4318C45.8674 92.5402 46.8538 92.8462 47.7039 92.8462Z" fill="black"/>
<path d="M56.6871 92.7056V90.5385L58.259 86.833H56.5828L55.9252 89.1655L55.2195 86.833H53.5674L55.1393 90.5385V92.7056H56.6871Z" fill="black"/>
<path d="M63.8819 90.3235L64.7881 92.7056H66.5525L65.0688 89.1738L66.4081 86.833H64.6678L63.5691 89.0745V86.833H62.0212V92.7056H63.5691V90.9273L63.8819 90.3235Z" fill="black"/>
<path d="M74.3407 92.7056V86.833H72.7929V89.1324H71.7342V86.833H70.1864V92.7056H71.7342V90.34H72.7929V92.7056H74.3407Z" fill="black"/>
<path d="M82.2813 88.0737V86.833H78.6162V92.7056H82.3374V91.4649H80.1641V90.3152H82.145V89.0993H80.1641V88.0737H82.2813Z" fill="black"/>
<g style="mix-blend-mode:hard-light">
<path fill-rule="evenodd" clip-rule="evenodd" d="M57.9213 58.3895C63.6048 58.3895 68.2121 53.8413 68.2121 48.2307C68.2121 42.6201 63.6048 38.0718 57.9213 38.0718C52.2379 38.0718 47.6305 42.6201 47.6305 48.2307C47.6305 53.8413 52.2379 58.3895 57.9213 58.3895ZM57.9213 64.1281C66.8153 64.1281 74.0253 57.0106 74.0253 48.2307C74.0253 39.4508 66.8153 32.3333 57.9213 32.3333C49.0274 32.3333 41.8174 39.4508 41.8174 48.2307C41.8174 57.0106 49.0274 64.1281 57.9213 64.1281Z" fill="#FCFF54"/>
</g>
<g style="mix-blend-mode:hard-light">
<path fill-rule="evenodd" clip-rule="evenodd" d="M57.9213 63.5733C63.5517 63.5733 68.2121 59.0523 68.2121 53.359C68.2121 47.6656 63.5517 43.1447 57.9213 43.1447C52.2909 43.1447 47.6305 47.6656 47.6305 53.359C47.6305 59.0523 52.2909 63.5733 57.9213 63.5733ZM57.9213 69.2564C66.8153 69.2564 74.0253 62.1389 74.0253 53.359C74.0253 44.5791 66.8153 37.4615 57.9213 37.4615C49.0274 37.4615 41.8174 44.5791 41.8174 53.359C41.8174 62.1389 49.0274 69.2564 57.9213 69.2564Z" fill="#F15A29"/>
</g>
<path fill-rule="evenodd" clip-rule="evenodd" d="M58.9603 57.3639C64.6438 57.3639 69.2511 52.8156 69.2511 47.2051C69.2511 41.5945 64.6438 37.0462 58.9603 37.0462C53.2769 37.0462 48.6696 41.5945 48.6696 47.2051C48.6696 52.8156 53.2769 57.3639 58.9603 57.3639ZM58.9603 63.1025C67.8543 63.1025 75.0643 55.985 75.0643 47.2051C75.0643 38.4251 67.8543 31.3076 58.9603 31.3076C50.0664 31.3076 42.8564 38.4251 42.8564 47.2051C42.8564 55.985 50.0664 63.1025 58.9603 63.1025Z" fill="#FF30EA" fill-opacity="0.87"/>
<path opacity="0.87" fill-rule="evenodd" clip-rule="evenodd" d="M62.5971 63.5178C68.5504 63.5178 73.2778 58.9172 73.2778 53.359C73.2778 47.8008 68.5504 43.2001 62.5971 43.2001C56.6437 43.2001 51.9163 47.8008 51.9163 53.359C51.9163 58.9172 56.6437 63.5178 62.5971 63.5178ZM62.5971 69.2564C71.7779 69.2564 79.2205 62.1389 79.2205 53.359C79.2205 44.5791 71.7779 37.4615 62.5971 37.4615C53.4162 37.4615 45.9736 44.5791 45.9736 53.359C45.9736 62.1389 53.4162 69.2564 62.5971 69.2564Z" fill="#2AEAEA"/>
<path opacity="0.91" fill-rule="evenodd" clip-rule="evenodd" d="M53.766 58.4174C59.5068 58.4174 64.1129 53.8306 64.1129 48.2307C64.1129 42.6308 59.5068 38.044 53.766 38.044C48.0252 38.044 43.419 42.6308 43.419 48.2307C43.419 53.8306 48.0252 58.4174 53.766 58.4174ZM53.766 64.1281C62.6599 64.1281 69.8699 57.0106 69.8699 48.2307C69.8699 39.4508 62.6599 32.3333 53.766 32.3333C44.8721 32.3333 37.6621 39.4508 37.6621 48.2307C37.6621 57.0106 44.8721 64.1281 53.766 64.1281Z" fill="#D7FD52"/>
<g filter="url(#filter1_d_1001_2162)">
<path d="M20 40.2245C20 28.5025 29.5025 19 41.2245 19H78.7755C90.4975 19 100 28.5025 100 40.2245V77.7755C100 89.4975 90.4975 99 78.7755 99H41.2245C29.5025 99 20 89.4975 20 77.7755V40.2245Z" fill="white"/>
</g>
<path d="M39.1748 92.7056V90.6047H39.8565C41.3802 90.6047 41.9015 89.5791 41.9015 88.6775C41.9015 87.8504 41.3802 86.833 39.8565 86.833H37.627V92.7056H39.1748ZM39.4715 89.5294H39.1748V87.9496H39.4715C40.073 87.9496 40.2895 88.2805 40.2895 88.7437C40.2895 89.1738 40.0891 89.5294 39.4715 89.5294Z" fill="black"/>
<path d="M47.6688 92.8462C49.0402 92.8462 49.9705 91.986 49.9705 90.8777C49.9705 89.8851 49.377 89.4219 48.5028 89.1572L47.7008 88.9174C47.2678 88.785 47.1074 88.6196 47.1074 88.3632C47.1074 88.1316 47.2838 87.9579 47.6848 87.9579C48.0377 87.9579 48.4226 88.1399 48.8316 88.6858L49.9304 87.7015C49.4813 87.1225 48.7675 86.6924 47.765 86.6924C46.5059 86.6924 45.5836 87.3789 45.5836 88.5865C45.5836 89.4467 46.1289 89.9926 47.0593 90.2656L47.8131 90.4889C48.2542 90.6212 48.4066 90.7453 48.4066 91.0679C48.4066 91.3988 48.0698 91.5476 47.7891 91.5476C47.2196 91.5476 46.8347 91.3078 46.5781 90.7288L45.3189 91.4318C45.8322 92.5402 46.8187 92.8462 47.6688 92.8462Z" fill="black"/>
<path d="M56.6519 92.7056V90.5385L58.2238 86.833H56.5477L55.8901 89.1655L55.1843 86.833H53.5322L55.1041 90.5385V92.7056H56.6519Z" fill="black"/>
<path d="M63.8467 90.3235L64.7529 92.7056H66.5173L65.0336 89.1738L66.373 86.833H64.6326L63.5339 89.0745V86.833H61.9861V92.7056H63.5339V90.9273L63.8467 90.3235Z" fill="black"/>
<path d="M74.3055 92.7056V86.833H72.7577V89.1324H71.6991V86.833H70.1513V92.7056H71.6991V90.34H72.7577V92.7056H74.3055Z" fill="black"/>
<path d="M82.2461 88.0737V86.833H78.5811V92.7056H82.3023V91.4649H80.1289V90.3152H82.1098V89.0993H80.1289V88.0737H82.2461Z" fill="black"/>
<g style="mix-blend-mode:hard-light">
<path fill-rule="evenodd" clip-rule="evenodd" d="M59.5649 58.3895C65.2483 58.3895 69.8557 53.8413 69.8557 48.2307C69.8557 42.6201 65.2483 38.0718 59.5649 38.0718C53.8814 38.0718 49.2741 42.6201 49.2741 48.2307C49.2741 53.8413 53.8814 58.3895 59.5649 58.3895ZM59.5649 64.1281C68.4588 64.1281 75.6688 57.0106 75.6688 48.2307C75.6688 39.4508 68.4588 32.3333 59.5649 32.3333C50.6709 32.3333 43.4609 39.4508 43.4609 48.2307C43.4609 57.0106 50.6709 64.1281 59.5649 64.1281Z" fill="#FCFF54"/>
</g>
<g style="mix-blend-mode:hard-light">
<path fill-rule="evenodd" clip-rule="evenodd" d="M59.5649 63.5733C65.1952 63.5733 69.8557 59.0523 69.8557 53.359C69.8557 47.6656 65.1952 43.1447 59.5649 43.1447C53.9345 43.1447 49.2741 47.6656 49.2741 53.359C49.2741 59.0523 53.9345 63.5733 59.5649 63.5733ZM59.5649 69.2564C68.4588 69.2564 75.6688 62.1389 75.6688 53.359C75.6688 44.5791 68.4588 37.4615 59.5649 37.4615C50.6709 37.4615 43.4609 44.5791 43.4609 53.359C43.4609 62.1389 50.6709 69.2564 59.5649 69.2564Z" fill="#F15A29"/>
</g>
<path fill-rule="evenodd" clip-rule="evenodd" d="M60.6039 57.3639C66.2873 57.3639 70.8947 52.8156 70.8947 47.2051C70.8947 41.5945 66.2873 37.0462 60.6039 37.0462C54.9205 37.0462 50.3131 41.5945 50.3131 47.2051C50.3131 52.8156 54.9205 57.3639 60.6039 57.3639ZM60.6039 63.1025C69.4978 63.1025 76.7078 55.985 76.7078 47.2051C76.7078 38.4251 69.4978 31.3076 60.6039 31.3076C51.71 31.3076 44.5 38.4251 44.5 47.2051C44.5 55.985 51.71 63.1025 60.6039 63.1025Z" fill="#FF30EA" fill-opacity="0.87"/>
<path opacity="0.87" fill-rule="evenodd" clip-rule="evenodd" d="M64.2406 63.5178C70.194 63.5178 74.9214 58.9172 74.9214 53.359C74.9214 47.8008 70.194 43.2001 64.2406 43.2001C58.2873 43.2001 53.5599 47.8008 53.5599 53.359C53.5599 58.9172 58.2873 63.5178 64.2406 63.5178ZM64.2406 69.2564C73.4215 69.2564 80.864 62.1389 80.864 53.359C80.864 44.5791 73.4215 37.4615 64.2406 37.4615C55.0597 37.4615 47.6172 44.5791 47.6172 53.359C47.6172 62.1389 55.0597 69.2564 64.2406 69.2564Z" fill="#2AEAEA"/>
<path opacity="0.91" fill-rule="evenodd" clip-rule="evenodd" d="M55.4095 58.4174C61.1503 58.4174 65.7565 53.8306 65.7565 48.2307C65.7565 42.6308 61.1503 38.044 55.4095 38.044C49.6688 38.044 45.0626 42.6308 45.0626 48.2307C45.0626 53.8306 49.6688 58.4174 55.4095 58.4174ZM55.4095 64.1281C64.3035 64.1281 71.5134 57.0106 71.5134 48.2307C71.5134 39.4508 64.3035 32.3333 55.4095 32.3333C46.5156 32.3333 39.3057 39.4508 39.3057 48.2307C39.3057 57.0106 46.5156 64.1281 55.4095 64.1281Z" fill="#D7FD52"/>
<defs>
<filter id="filter0_d_1001_2162" x="0" y="0" width="120" height="120" filterUnits="userSpaceOnUse" color-interpolation-filters="sRGB">
<feFlood flood-opacity="0" result="BackgroundImageFix"/>
<feColorMatrix in="SourceAlpha" type="matrix" values="0 0 0 0 0 0 0 0 0 0 0 0 0 0 0 0 0 0 127 0" result="hardAlpha"/>
<feOffset dy="1"/>
<feGaussianBlur stdDeviation="10"/>
<feComposite in2="hardAlpha" operator="out"/>
<feColorMatrix type="matrix" values="0 0 0 0 0 0 0 0 0 0 0 0 0 0 0 0 0 0 0.06 0"/>
<feBlend mode="normal" in2="BackgroundImageFix" result="effect1_dropShadow_1001_2162"/>
<feBlend mode="normal" in="SourceGraphic" in2="effect1_dropShadow_1001_2162" result="shape"/>
</filter>
<filter id="filter1_d_1001_2162" x="0" y="0" width="120" height="120" filterUnits="userSpaceOnUse" color-interpolation-filters="sRGB">
<feFlood flood-opacity="0" result="BackgroundImageFix"/>
<feColorMatrix in="SourceAlpha" type="matrix" values="0 0 0 0 0 0 0 0 0 0 0 0 0 0 0 0 0 0 127 0" result="hardAlpha"/>
<feOffset dy="1"/>
<feGaussianBlur stdDeviation="10"/>
<feComposite in2="hardAlpha" operator="out"/>
<feColorMatrix type="matrix" values="0 0 0 0 0 0 0 0 0 0 0 0 0 0 0 0 0 0 0.06 0"/>
<feBlend mode="normal" in2="BackgroundImageFix" result="effect1_dropShadow_1001_2162"/>
<feBlend mode="normal" in="SourceGraphic" in2="effect1_dropShadow_1001_2162" result="shape"/>
</filter>
</defs>
</svg>
