<svg width="120" height="120" viewBox="0 0 120 120" fill="none" xmlns="http://www.w3.org/2000/svg">
<g filter="url(#filter0_d_1001_2159)">
<path d="M20 40.2245C20 28.5025 29.5025 19 41.2245 19H78.7755C90.4975 19 100 28.5025 100 40.2245V77.7755C100 89.4975 90.4975 99 78.7755 99H41.2245C29.5025 99 20 89.4975 20 77.7755V40.2245Z" fill="white"/>
</g>
<path d="M49.9715 43.7938H47.576V42.6866H53.6389V43.7938H51.254V50.2151H49.9715V43.7938Z" fill="#484848"/>
<path d="M55.4975 42.6866H56.7801V45.7339H60.1825V42.6866H61.465V50.2151H60.1825V46.9148H56.7801V50.2151H55.4975V42.6866Z" fill="#484848"/>
<path d="M63.9224 42.6866H68.9572V43.7832H65.205V45.7866H68.7452V46.8937H65.205V49.1185H69.1586L69.0102 50.2151H63.9224V42.6866Z" fill="#484848"/>
<path d="M39.9767 60.0828C40.0333 60.5748 40.2099 60.9333 40.5067 61.1583C40.8106 61.3832 41.2593 61.4957 41.8528 61.4957C42.1426 61.4957 42.3863 61.4641 42.5842 61.4008C42.7821 61.3375 42.941 61.2532 43.0612 61.1477C43.1813 61.0423 43.2661 60.9193 43.3156 60.7787C43.365 60.6311 43.3898 60.4764 43.3898 60.3147C43.3898 60.1952 43.3721 60.0793 43.3368 59.9668C43.3014 59.8473 43.2378 59.7383 43.146 59.6399C43.0541 59.5415 42.9304 59.4572 42.775 59.3869C42.6195 59.3095 42.4217 59.2498 42.1814 59.2076L41.2169 59.0284C40.8353 58.9581 40.4961 58.8702 40.1993 58.7648C39.9025 58.6593 39.6517 58.5223 39.4468 58.3535C39.2489 58.1778 39.097 57.9669 38.991 57.7209C38.892 57.4678 38.8426 57.1621 38.8426 56.8036C38.8426 56.4451 38.9132 56.1323 39.0546 55.8651C39.203 55.598 39.4044 55.3766 39.6587 55.2009C39.9131 55.0181 40.2134 54.8845 40.5597 54.8002C40.913 54.7088 41.2946 54.6631 41.7044 54.6631C42.2273 54.6631 42.6655 54.7229 43.0188 54.8424C43.3721 54.9619 43.6583 55.12 43.8773 55.3168C44.0964 55.5066 44.2624 55.7281 44.3755 55.9811C44.4886 56.2342 44.5663 56.4978 44.6087 56.7719L43.4004 56.9617C43.3014 56.54 43.1283 56.2272 42.881 56.0233C42.6407 55.8194 42.2556 55.7175 41.7256 55.7175C41.4218 55.7175 41.1674 55.7456 40.9625 55.8019C40.7646 55.8511 40.6021 55.9249 40.4749 56.0233C40.3548 56.1147 40.2664 56.2236 40.2099 56.3502C40.1605 56.4697 40.1357 56.5962 40.1357 56.7298C40.1357 57.0601 40.224 57.3062 40.4007 57.4678C40.5844 57.6295 40.9024 57.756 41.3547 57.8474L42.404 58.0478C43.2025 58.1954 43.789 58.4484 44.1635 58.8069C44.538 59.1584 44.7253 59.668 44.7253 60.3358C44.7253 60.6522 44.6652 60.9474 44.5451 61.2215C44.432 61.4887 44.2554 61.7241 44.0151 61.928C43.7749 62.1248 43.4746 62.2795 43.1142 62.3919C42.7609 62.5114 42.3475 62.5712 41.874 62.5712C40.9059 62.5712 40.1463 62.3708 39.5951 61.9702C39.044 61.5625 38.7401 60.9333 38.6836 60.0828H39.9767Z" fill="#484848"/>
<path d="M48.4965 55.96H46.101V54.8529H52.1639V55.96H49.779V62.3814H48.4965V55.96Z" fill="#484848"/>
<path d="M55.2125 54.8529H56.4845L59.3675 62.3814H58.0002L57.29 60.4624H54.354L53.6544 62.3814H52.3295L55.2125 54.8529ZM56.9403 59.3974L55.8167 56.2974L54.7038 59.3974H56.9403Z" fill="#484848"/>
<path d="M61.9201 55.96H59.5246V54.8529H65.5875V55.96H63.2026V62.3814H61.9201V55.96Z" fill="#484848"/>
<path d="M68.6015 54.8529V59.3658C68.6015 60.0757 68.7287 60.6065 68.9831 60.9579C69.2445 61.3024 69.6826 61.4746 70.2974 61.4746C70.9051 61.4746 71.3326 61.3024 71.5799 60.9579C71.8343 60.6065 71.9615 60.0757 71.9615 59.3658V54.8529H73.244V59.3658C73.244 59.9492 73.1734 60.4448 73.0321 60.8525C72.8907 61.2532 72.6893 61.5836 72.4279 61.8436C72.1664 62.0967 71.8555 62.2795 71.4951 62.3919C71.1348 62.5114 70.732 62.5712 70.2868 62.5712C69.3187 62.5712 68.5838 62.3146 68.0821 61.8015C67.5804 61.2813 67.3295 60.4588 67.3295 59.3341V54.8529H68.6015Z" fill="#484848"/>
<path d="M76.5324 60.0828C76.589 60.5748 76.7656 60.9333 77.0624 61.1583C77.3663 61.3832 77.815 61.4957 78.4086 61.4957C78.6983 61.4957 78.9421 61.4641 79.1399 61.4008C79.3378 61.3375 79.4968 61.2532 79.6169 61.1477C79.737 61.0423 79.8218 60.9193 79.8713 60.7787C79.9207 60.6311 79.9455 60.4764 79.9455 60.3147C79.9455 60.1952 79.9278 60.0793 79.8925 59.9668C79.8571 59.8473 79.7936 59.7383 79.7017 59.6399C79.6098 59.5415 79.4862 59.4572 79.3307 59.3869C79.1752 59.3095 78.9774 59.2498 78.7371 59.2076L77.7726 59.0284C77.391 58.9581 77.0518 58.8702 76.755 58.7648C76.4583 58.6593 76.2074 58.5223 76.0025 58.3535C75.8046 58.1778 75.6527 57.9669 75.5467 57.7209C75.4478 57.4678 75.3983 57.1621 75.3983 56.8036C75.3983 56.4451 75.469 56.1323 75.6103 55.8651C75.7587 55.598 75.9601 55.3766 76.2145 55.2009C76.4689 55.0181 76.7692 54.8845 77.1154 54.8002C77.4687 54.7088 77.8503 54.6631 78.2602 54.6631C78.7831 54.6631 79.2212 54.7229 79.5745 54.8424C79.9278 54.9619 80.214 55.12 80.4331 55.3168C80.6521 55.5066 80.8182 55.7281 80.9312 55.9811C81.0443 56.2342 81.122 56.4978 81.1644 56.7719L79.9561 56.9617C79.8571 56.54 79.684 56.2272 79.4367 56.0233C79.1964 55.8194 78.8113 55.7175 78.2814 55.7175C77.9775 55.7175 77.7231 55.7456 77.5182 55.8019C77.3203 55.8511 77.1578 55.9249 77.0306 56.0233C76.9105 56.1147 76.8222 56.2236 76.7656 56.3502C76.7162 56.4697 76.6914 56.5962 76.6914 56.7298C76.6914 57.0601 76.7798 57.3062 76.9564 57.4678C77.1402 57.6295 77.4581 57.756 77.9104 57.8474L78.9597 58.0478C79.7582 58.1954 80.3447 58.4484 80.7192 58.8069C81.0938 59.1584 81.281 59.668 81.281 60.3358C81.281 60.6522 81.2209 60.9474 81.1008 61.2215C80.9878 61.4887 80.8111 61.7241 80.5708 61.928C80.3306 62.1248 80.0303 62.2795 79.6699 62.3919C79.3166 62.5114 78.9032 62.5712 78.4298 62.5712C77.4617 62.5712 76.702 62.3708 76.1509 61.9702C75.5997 61.5625 75.2958 60.9333 75.2393 60.0828H76.5324Z" fill="#484848"/>
<path d="M52.2827 71.6586L53.1731 72.7446C53.484 72.2736 53.6395 71.6199 53.6395 70.7834C53.6395 70.3476 53.5935 69.9539 53.5017 69.6025C53.4098 69.251 53.272 68.9523 53.0883 68.7062C52.9046 68.4532 52.6749 68.2599 52.3993 68.1263C52.1238 67.9927 51.8022 67.926 51.4348 67.926C51.0603 67.926 50.7317 67.9927 50.449 68.1263C50.1735 68.2599 49.9438 68.4532 49.7601 68.7062C49.5763 68.9523 49.4386 69.251 49.3467 69.6025C49.2548 69.9539 49.2089 70.3476 49.2089 70.7834C49.2089 71.7253 49.3997 72.4423 49.7813 72.9344C50.1629 73.4194 50.7564 73.6619 51.562 73.6619C51.7245 73.6619 51.8764 73.6444 52.0178 73.6092C52.1662 73.567 52.3004 73.5143 52.4205 73.4511L51.4878 72.3228L52.2827 71.6586ZM53.1519 74.3473C52.8904 74.4738 52.6184 74.5687 52.3357 74.632C52.0531 74.7023 51.7528 74.7374 51.4348 74.7374C50.8836 74.7374 50.3854 74.6461 49.9403 74.4633C49.5022 74.2805 49.1312 74.0204 48.8273 73.683C48.5235 73.3386 48.2903 72.9239 48.1278 72.4388C47.9652 71.9468 47.884 71.3985 47.884 70.794C47.884 70.1824 47.9652 69.6306 48.1278 69.1385C48.2973 68.6465 48.5376 68.2317 48.8485 67.8943C49.1594 67.5499 49.5304 67.2863 49.9615 67.1035C50.3996 66.9208 50.8907 66.8294 51.4348 66.8294C51.986 66.8294 52.4806 66.9208 52.9187 67.1035C53.3568 67.2863 53.7243 67.5499 54.0211 67.8943C54.3249 68.2317 54.5581 68.6465 54.7206 69.1385C54.8831 69.6236 54.9644 70.1683 54.9644 70.7729C54.9644 71.4196 54.8796 71.9889 54.71 72.481C54.5404 72.966 54.2931 73.3773 53.9681 73.7147L54.8902 74.8323L54.1059 75.5072L53.1519 74.3473Z" fill="#484848"/>
<path d="M58.3397 67.0192V71.532C58.3397 72.242 58.4669 72.7727 58.7213 73.1242C58.9827 73.4686 59.4208 73.6409 60.0356 73.6409C60.6433 73.6409 61.0708 73.4686 61.3181 73.1242C61.5725 72.7727 61.6997 72.242 61.6997 71.532V67.0192H62.9822V71.532C62.9822 72.1155 62.9116 72.6111 62.7702 73.0188C62.6289 73.4194 62.4275 73.7498 62.1661 74.0099C61.9046 74.263 61.5937 74.4457 61.2333 74.5582C60.8729 74.6777 60.4702 74.7374 60.025 74.7374C59.0569 74.7374 58.322 74.4809 57.8203 73.9677C57.3186 73.4475 57.0677 72.6251 57.0677 71.5004V67.0192H58.3397Z" fill="#484848"/>
<path d="M68.6262 74.7374C68.0821 74.7374 67.591 74.6496 67.1529 74.4738C66.7218 74.2911 66.3509 74.031 66.0399 73.6936C65.729 73.3562 65.4888 72.9449 65.3192 72.4599C65.1566 71.9679 65.0754 71.4125 65.0754 70.794C65.0754 70.1754 65.1602 69.62 65.3298 69.128C65.4994 68.6359 65.7396 68.2212 66.0505 67.8838C66.3615 67.5393 66.736 67.2793 67.1741 67.1035C67.6122 66.9208 68.0962 66.8294 68.6262 66.8294C69.1632 66.8294 69.6508 66.9208 70.0889 67.1035C70.527 67.2793 70.898 67.5358 71.2019 67.8732C71.5057 68.2106 71.7389 68.6254 71.9014 69.1174C72.071 69.6025 72.1558 70.1543 72.1558 70.7729C72.1558 71.3985 72.0746 71.9573 71.912 72.4494C71.7495 72.9344 71.5163 73.3491 71.2125 73.6936C70.9086 74.031 70.5376 74.2911 70.0995 74.4738C69.6685 74.6496 69.1774 74.7374 68.6262 74.7374ZM68.6156 73.6409C69.3434 73.6409 69.8946 73.3878 70.2691 72.8817C70.6436 72.3685 70.8309 71.6691 70.8309 70.7834C70.8309 70.3406 70.7814 69.9434 70.6825 69.5919C70.5906 69.2405 70.4528 68.9417 70.2691 68.6957C70.0854 68.4496 69.8557 68.2599 69.5802 68.1263C69.3046 67.9927 68.9831 67.926 68.6156 67.926C68.2482 67.926 67.9266 67.9927 67.6511 68.1263C67.3755 68.2599 67.1423 68.4496 66.9515 68.6957C66.7678 68.9417 66.63 69.2405 66.5381 69.5919C66.4463 69.9434 66.4003 70.3406 66.4003 70.7834C66.4003 71.6691 66.584 72.3685 66.9515 72.8817C67.326 73.3878 67.8807 73.6409 68.6156 73.6409Z" fill="#484848"/>
<defs>
<filter id="filter0_d_1001_2159" x="0" y="0" width="120" height="120" filterUnits="userSpaceOnUse" color-interpolation-filters="sRGB">
<feFlood flood-opacity="0" result="BackgroundImageFix"/>
<feColorMatrix in="SourceAlpha" type="matrix" values="0 0 0 0 0 0 0 0 0 0 0 0 0 0 0 0 0 0 127 0" result="hardAlpha"/>
<feOffset dy="1"/>
<feGaussianBlur stdDeviation="10"/>
<feComposite in2="hardAlpha" operator="out"/>
<feColorMatrix type="matrix" values="0 0 0 0 0 0 0 0 0 0 0 0 0 0 0 0 0 0 0.06 0"/>
<feBlend mode="normal" in2="BackgroundImageFix" result="effect1_dropShadow_1001_2159"/>
<feBlend mode="normal" in="SourceGraphic" in2="effect1_dropShadow_1001_2159" result="shape"/>
</filter>
</defs>
</svg>
