<svg width="229" height="18" viewBox="0 0 229 18" fill="none" xmlns="http://www.w3.org/2000/svg">
<g clip-path="url(#clip0_1024_4417)">
<path fill-rule="evenodd" clip-rule="evenodd" d="M5.49774 15.3473C5.49774 16.6029 5.86527 16.8882 8.22704 16.8882V17.6787H0V16.8882C1.62236 16.8882 2.17474 16.7445 2.17474 15.3833V2.58079C2.17474 1.21959 1.62018 1.07586 0 1.07586V0.287459H13.7987L13.8727 5.0559H13.2072C12.8397 1.47957 11.9176 1.14772 8.48583 1.14772H5.45859V8.24331H7.8943C10.2191 8.24331 10.367 7.88398 10.5518 6.09159H11.2043V11.2912H10.5518C10.367 9.49883 10.2191 9.17755 7.8943 9.17755H5.45859V15.3473H5.49774ZM15.569 17.6724V16.8882C17.1935 16.8882 17.7437 16.7445 17.7437 15.3833V2.58079C17.7437 1.21959 17.1913 1.07586 15.569 1.07586V0.287459H23.2436V1.07586C21.6191 1.07586 21.0689 1.21959 21.0689 2.5829V15.3833C21.0689 16.7466 21.6213 16.8882 23.2436 16.8882V17.6787L15.569 17.6724ZM40.6567 17.9662L28.4086 3.22757V15.3114C28.4086 16.7107 29.4046 16.9241 31.1009 16.9241V17.7147H24.6072V16.9241C26.3056 16.9241 27.2169 16.7128 27.2169 15.3114V1.9023C26.4426 1.1139 25.8881 1.07797 24.6072 1.07797V0.287459H30.3637L39.7347 12.012V2.65265C39.7347 1.25552 38.7386 1.03992 37.0423 1.03992V0.287459H43.5665V1.07586C41.8702 1.07586 40.9569 1.28722 40.9569 2.68859V17.9662H40.6567ZM49.4014 17.6808H42.9446V16.8882C44.6409 16.8882 45.4172 16.6768 45.9696 15.2396L51.8001 0.107797H53.4225L59.6944 15.3473C60.2468 16.7107 60.5056 16.8523 61.7974 16.8523V17.6428H54.3076V16.8523C56.5954 16.8523 56.8172 16.6747 56.2648 15.3473L54.4207 10.7205H48.8098L47.1505 15.2036C46.6351 16.5669 47.4463 16.8523 49.4383 16.8523V17.6787L49.4014 17.6808ZM49.1426 9.82645H54.0118L51.4674 3.59324L49.1426 9.82645ZM78.6212 17.9662L66.41 3.22757V15.3114C66.41 16.7107 67.406 16.9241 69.1023 16.9241V17.7147H62.7564V16.9241C64.307 16.9241 65.2291 16.7128 65.2291 15.3114V1.93612C64.344 1.14772 63.6785 1.07586 62.2041 1.07586V0.287459H68.3281L77.6991 12.012V2.65265C77.6991 1.25552 76.703 1.03992 75.0046 1.03992V0.287459H81.4983V1.07586C79.802 1.07586 78.8886 1.28722 78.8886 2.68859V17.9662H78.6212ZM96.7346 0.25364H97.1695L97.4283 5.45326L96.765 5.4892C96.3301 2.51315 94.699 0.934242 91.7087 0.934242C88.3901 0.934242 85.8804 3.69469 85.8804 7.92626C85.8804 13.3415 89.3839 16.4253 93.0745 16.4253C94.6599 16.4253 96.0995 16.0026 97.5022 14.523L98.0176 15.024C96.8737 16.6029 94.6251 17.9281 91.5978 17.9281C87.0983 17.9281 82.5226 14.6308 82.5226 9.1078C82.5313 3.76444 86.7003 0 91.7544 0C94.1466 0 95.408 1.00399 96.0713 1.00399C96.3612 1.00399 96.5787 0.753171 96.7237 0.251527L96.7346 0.25364ZM99.503 17.6808V16.8882C101.125 16.8882 101.678 16.7445 101.678 15.3833V2.58079C101.678 1.21959 101.123 1.07586 99.503 1.07586V0.287459H107.175V1.07586C105.553 1.07586 105.001 1.21959 105.001 2.5829V15.3833C105.001 16.7466 105.555 16.8882 107.175 16.8882V17.6787L99.503 17.6808ZM114.409 17.6808H108.393V16.8882C109.722 16.8882 110.422 16.6768 110.977 15.2396L116.805 0.107797H118.43L124.702 15.3473C125.254 16.7107 125.513 16.8523 126.805 16.8523V17.6428H119.315V16.8523C121.603 16.8523 121.825 16.6747 121.272 15.3473L119.428 10.7205H113.817L112.158 15.2036C111.64 16.5669 112.454 16.8523 114.446 16.8523V17.6787L114.409 17.6808ZM114.15 9.82645H119.019L116.512 3.59324L114.15 9.82645ZM128.068 17.6808V16.8882C129.693 16.8882 130.243 16.7445 130.243 15.3833V2.58079C130.243 1.21959 129.688 1.07586 128.068 1.07586V0.287459H135.706V1.07586C134.084 1.07586 133.566 1.21959 133.566 2.5829V15.4911C133.566 16.6388 134.157 16.7825 135.117 16.7825H136.039C139.518 16.7825 140.606 16.2795 141.573 12.4432L142.226 12.515L141.673 17.6428H128.059V17.6787L128.068 17.6808ZM165.256 0.289573L165.33 5.34547H164.649C164.288 1.61273 163.366 1.14772 159.935 1.14772H158.828V15.3473C158.828 16.7107 159.345 16.8882 161.559 16.8882V17.6787H152.778V16.8882C154.991 16.8882 155.544 16.6768 155.544 15.3473V1.14772H154.428C150.999 1.14772 150.079 1.61273 149.707 5.34335H149.044L149.115 0.287459L165.256 0.289573ZM166.996 17.6808V16.8882C168.621 16.8882 169.171 16.7445 169.171 15.3833V2.58079C169.171 1.21959 168.618 1.07586 166.996 1.07586V0.287459H174.653V1.07586C173.029 1.07586 172.479 1.21959 172.479 2.5829V15.3833C172.479 16.7466 173.031 16.8882 174.653 16.8882V17.6787L166.996 17.6808ZM197.751 0.287459V1.07586C196.127 1.07586 195.426 1.14772 195.576 2.55543L196.979 15.4636C197.127 16.791 197.642 16.9326 199.267 16.9326V17.7231H191.627V16.9241C193.212 16.9241 193.767 16.7825 193.656 15.4551L192.216 1.9023L186.562 18.0021H186.345L180.816 1.86426L179.488 15.4298C179.34 16.791 180.301 16.9347 181.923 16.9347V17.7252H175.958V16.9241C177.58 16.9241 178.133 16.6747 178.244 15.4192L179.646 2.50892C179.794 1.14772 179.094 1.03992 177.472 1.03992V0.287459H183.744L187.508 12.1557L191.553 0.287459H197.751ZM212.028 11.2954H211.365C211.18 9.50305 211.032 9.18178 208.71 9.18178H205.97V15.4911C205.97 16.6367 206.561 16.7804 207.518 16.7804H209.014C212.483 16.7804 213.581 16.2795 214.549 12.4432L215.212 12.515L214.586 17.6428H200.48V16.8523C202.105 16.8523 202.655 16.7086 202.655 15.3473V2.58079C202.655 1.21959 202.103 1.07586 200.48 1.07586V0.287459H214.016L214.09 4.62471H213.427C213.024 1.54086 212.213 1.18365 208.671 1.18365H206.015V8.24331H208.744C211.069 8.24331 211.217 7.88398 211.402 6.09159H212.054V11.2912L212.028 11.2954ZM226.271 14.0918C226.271 12.515 225.238 11.7245 223.465 10.7565L220.625 9.32339C218.485 8.2116 217.23 6.99836 217.23 4.80437C217.23 2.07985 219.623 0 222.765 0C224.905 0 226.012 1.00399 226.638 1.00399C227.045 1.00399 227.23 0.752466 227.412 0.251527H227.934L228.193 5.12776L227.528 5.16369C227.16 2.79638 225.425 0.96806 222.991 0.96806C221.147 0.96806 219.929 2.04392 219.929 3.54885C219.929 5.19963 221.219 5.87389 222.658 6.63269L225.094 7.88821C227.382 9.1078 229.009 10.3274 229.009 12.6566C229.009 15.7405 226.279 17.9281 222.885 17.9281C220.492 17.9281 219.305 16.8163 218.679 16.8163C218.272 16.8163 218.052 17.1757 217.868 17.7147H217.35L216.974 12.551L217.626 12.4791C218.142 15.7046 220.429 17.0319 222.717 17.0319C224.635 16.996 226.26 16.1717 226.26 14.0918H226.271Z" fill="black"/>
</g>
<defs>
<clipPath id="clip0_1024_4417">
<rect width="229" height="18" fill="white"/>
</clipPath>
</defs>
</svg>
