<svg width="241" height="26" viewBox="0 0 241 26" fill="none" xmlns="http://www.w3.org/2000/svg">
<g clip-path="url(#clip0_1052_751)">
<path d="M61.6751 0.470094H69.5726L69.584 0.524614C69.5059 0.54796 69.4258 0.563815 69.3448 0.571962C69.0001 0.571962 68.6554 0.571962 68.3122 0.571962C67.8308 0.571962 67.7966 0.612134 67.7923 1.10998V1.25345C67.7923 7.69822 67.7738 14.1444 67.7923 20.5892C67.7994 22.4744 68.5187 24.0325 70.1737 25.0755C70.7868 25.4452 71.4834 25.6511 72.1976 25.6738C73.2971 25.7326 74.3966 25.6466 75.4363 25.2219C76.6588 24.7376 77.6454 23.792 78.1866 22.5863C78.8289 21.219 79.0412 19.7714 79.0412 18.2821C79.0469 12.7805 79.0469 7.28071 79.0412 1.78287C79.0412 1.52031 79.0312 1.25633 79.0412 0.995206C79.0554 0.69535 78.9486 0.556183 78.631 0.574834C78.2763 0.596355 77.9188 0.582008 77.5628 0.574834C77.4531 0.574834 77.342 0.561921 77.2323 0.556182C77.2323 0.524618 77.2323 0.49305 77.2323 0.461486C77.3406 0.461486 77.4488 0.441406 77.5571 0.441406H97.1706C97.6321 0.441406 97.6463 0.455748 97.6463 0.929206C97.6463 2.94547 97.6463 4.9622 97.6463 6.97942C97.6463 7.18889 97.6093 7.39692 97.5894 7.60639C97.3643 6.9292 97.2062 6.24054 96.9128 5.61931C96.1252 3.95216 95.1396 2.43135 93.4433 1.5447C92.6281 1.13502 91.7553 0.853886 90.8554 0.711126C89.6591 0.500222 88.4669 0.632216 87.2734 0.567654C86.9715 0.553306 86.8461 0.656606 86.8461 0.97081C86.8518 4.69534 86.8518 8.4194 86.8461 12.143C86.8461 12.3051 86.8461 12.4601 87.074 12.4601C88.1109 12.4601 89.1563 12.4242 90.0878 11.9192C90.6811 11.6148 91.1987 11.1794 91.6019 10.6456C92.0051 10.1118 92.2835 9.49321 92.4164 8.83595C92.4478 8.69248 92.4933 8.54901 92.5332 8.40553L92.6272 8.41701V17.6552L92.5475 17.6681C92.5119 17.4902 92.4663 17.3137 92.4435 17.1344C92.3623 16.4524 92.1476 15.7933 91.812 15.1954C91.4763 14.5975 91.0263 14.0725 90.488 13.6509C89.8352 13.1102 89.0263 12.7967 88.1821 12.757C87.8502 12.737 87.5227 12.681 87.1922 12.638C86.9473 12.6064 86.8404 12.7169 86.8461 12.9608C86.8461 13.176 86.8461 13.3912 86.8461 13.605C86.8461 17.318 86.8461 21.0296 86.8376 24.7413C86.8376 25.1143 86.9444 25.2118 87.2976 25.1932C88.437 25.1301 89.5765 25.1358 90.7045 25.0382C92.331 24.8948 93.751 24.2276 95.01 23.186C96.3802 22.0526 97.2689 20.6035 97.8073 18.9263C98.0252 18.2506 98.2004 17.5605 98.4097 16.8245V19.7427C98.4097 21.473 98.4097 23.2047 98.4097 24.9349C98.4097 25.2219 98.3414 25.3654 98.0138 25.3654C92.3424 25.3587 86.6709 25.3558 80.9995 25.3568C80.9001 25.3511 80.8012 25.3391 80.7033 25.3209V25.2262C80.8079 25.2076 80.9135 25.1947 81.0195 25.1875C81.4225 25.1875 81.8256 25.176 82.2287 25.1875C82.4637 25.1875 82.5548 25.0971 82.5335 24.8689C82.5335 24.7857 82.5335 24.7025 82.5335 24.6179V1.23193C82.5335 1.12433 82.5335 1.01672 82.5335 0.909118C82.5335 0.678128 82.4395 0.559048 82.1916 0.561918C81.3247 0.567657 80.4583 0.567657 79.5923 0.561918C79.3388 0.561918 79.2163 0.665219 79.222 0.922034C79.222 1.02964 79.222 1.13724 79.222 1.24341C79.222 7.11524 79.2249 12.9876 79.2306 18.8603C79.2306 20.4715 78.8816 22.0038 77.9929 23.3367C77.2865 24.3906 76.2422 25.1681 75.0347 25.539C73.3655 26.0856 71.672 26.0497 69.97 25.8675C68.5543 25.7154 67.2041 25.3281 66.0234 24.483C64.8366 23.6626 64.0211 22.4017 63.7559 20.9766C63.579 20.0406 63.4884 19.0901 63.4853 18.1372C63.4611 12.5418 63.4725 6.94642 63.4725 1.35101C63.4725 1.23193 63.4725 1.11285 63.4725 0.99377C63.4839 0.696783 63.3614 0.553311 63.0452 0.563354C62.6906 0.579136 62.3331 0.563354 61.9785 0.563354C61.8688 0.563354 61.7591 0.547574 61.6509 0.538966L61.6751 0.470094Z" fill="black"/>
<path d="M28.464 0.273726C27.638 0.360023 26.8505 0.669873 26.1852 1.17043C25.3178 1.8017 24.7908 2.68549 24.4177 3.66541C24.1076 4.42385 23.8464 5.20165 23.6357 5.99396C23.3519 7.08871 23.143 8.20181 23.0105 9.32538C22.8681 10.7472 22.8339 12.1819 22.8097 13.6123C22.7885 15.6784 23.0327 17.7385 23.536 19.7414C23.865 21.103 24.3222 22.4358 25.0572 23.6468C25.7323 24.7601 26.7392 25.4846 27.984 25.6711C30.2372 26.0083 32.0845 25.3268 33.2168 22.9323C33.9006 21.4528 34.3798 19.8858 34.641 18.2752C35.1278 15.4256 35.2193 12.5217 34.9131 9.64676C34.7009 7.60371 34.2707 5.60802 33.4689 3.69984C32.9704 2.51333 32.3408 1.4588 31.1715 0.854786C30.73 0.6281 30.2201 0.530544 29.7387 0.384203C29.6062 0.368453 29.479 0.322317 29.367 0.249339C29.6289 0.224179 29.8927 0.224179 30.1546 0.249339C32.6585 0.741448 34.7835 1.9294 36.4114 3.90931C37.6263 5.38851 38.572 7.05278 39.0534 8.92079C39.5405 10.7608 39.711 12.6713 39.5576 14.5693C39.4104 16.4386 38.9085 18.2621 38.0792 19.9409C36.9156 22.2723 35.2065 24.0815 32.8094 25.1274C31.0519 25.8935 29.1961 26.0686 27.3046 25.7572C23.6286 25.1518 21.2245 22.9107 19.6592 19.6453C18.4956 17.2163 18.1324 14.631 18.3104 11.9524C18.482 8.89027 19.6686 5.97474 21.6802 3.67258C22.9687 2.13934 24.6998 1.04903 26.6324 0.553499C27.1893 0.410027 27.7633 0.342591 28.3315 0.24503C28.377 0.246742 28.4218 0.256455 28.464 0.273726V0.273726Z" fill="black"/>
<path d="M52.4857 25.6868C52.6765 25.6581 53.118 25.7083 52.9941 25.7155C49.7098 26.351 47.6645 25.3869 45.8728 23.8073C44.0466 22.2136 42.6853 20.1495 41.9347 17.836C41.3073 15.9278 41.094 13.9061 41.3094 11.9077C41.4581 10.3894 41.8092 8.89821 42.3534 7.47442C43.104 5.53612 44.3317 3.93497 45.8187 2.5189C46.8541 1.53325 48.0177 0.751328 49.3793 0.302261C50.3822 -0.0505736 51.4669 -0.0935374 52.4942 0.178877C53.4285 0.435692 54.3301 0.817327 55.2715 1.03971C56.371 1.29222 57.4506 1.24057 58.2895 0.303697C58.3365 0.252047 58.3892 0.204701 58.4405 0.160225C58.4476 0.160225 58.4633 0.160224 58.5146 0.150181V8.34674L58.4605 8.35391C58.2924 7.85893 58.1443 7.34961 57.9548 6.87041C57.2598 5.07558 56.2229 3.48448 54.9838 2.02967C53.6749 0.493084 52.0342 -0.133895 50.0544 0.427081C48.935 0.744154 48.1886 1.55477 47.6332 2.5519C47.1119 3.47299 46.8299 4.48017 46.5821 5.49738C45.8301 8.57629 45.7888 11.7169 45.9312 14.8518C46.0052 16.4644 46.2873 18.0713 46.555 19.6681C46.7145 20.6297 46.9634 21.5741 47.2985 22.4888C47.6659 23.4816 48.1758 24.4271 49.0902 25.0512C49.6871 25.4882 50.4047 25.7265 51.1426 25.7327C51.5926 25.7327 52.0427 25.714 52.4928 25.704L52.4857 25.6868Z" fill="black"/>
<path d="M13.596 18.6421C13.7669 18.0911 13.9392 17.5388 14.1059 16.9864C14.3793 16.0768 14.65 15.1681 14.9177 14.2604C15.1755 13.3838 15.4248 12.5058 15.6854 11.6306C15.946 10.7554 16.2223 9.86015 16.4844 8.97492C16.7465 8.0897 16.9872 7.24465 17.2421 6.38095C17.4429 5.69946 17.6523 5.02084 17.856 4.34078C18.0596 3.66072 18.2548 3.00219 18.4513 2.33217C18.5767 1.90176 18.712 1.47134 18.8131 1.04092C18.9071 0.639202 18.8544 0.591851 18.43 0.587547C18.0055 0.583243 17.5825 0.587547 17.1581 0.587547V0.497159H20.8954L20.9096 0.538771C20.8356 0.560909 20.7598 0.576277 20.6831 0.584684C20.3043 0.584684 19.9226 0.606204 19.5437 0.584684C19.4251 0.567895 19.3046 0.59706 19.2066 0.666297C19.1085 0.735534 19.0401 0.839682 19.0153 0.957707C18.8117 1.62485 18.6407 2.30204 18.4456 2.96632C18.1907 3.84149 17.9243 4.71237 17.6665 5.58612C17.4088 6.45986 17.1495 7.36087 16.8875 8.24609C16.6254 9.13131 16.369 9.99644 16.1113 10.8716C15.8535 11.7468 15.5885 12.6464 15.3279 13.5345C15.0744 14.3953 14.8204 15.2604 14.5659 16.1299L13.596 19.4082C13.2732 20.5024 12.9499 21.5971 12.6261 22.6923C12.3669 23.5703 12.1091 24.4493 11.8527 25.3293C11.8342 25.3953 11.8085 25.4613 11.7615 25.6005C11.6604 25.4871 11.5636 25.4226 11.5294 25.3336C10.8173 23.4814 10.1151 21.6263 9.40439 19.7726C8.62104 17.7325 7.82629 15.6951 7.04295 13.6535C6.20548 11.467 5.37941 9.27621 4.54195 7.09114C3.81842 5.20496 3.09013 3.32022 2.35711 1.43691C1.98538 0.478515 2.21469 0.591857 1.10092 0.584684C0.733455 0.584684 0.365996 0.584684 -0.00146484 0.584684V0.478516H8.22082L8.23363 0.535899C8.15919 0.558069 8.08293 0.573435 8.00575 0.581811C7.61408 0.581811 7.22241 0.581811 6.83073 0.581811C6.43906 0.581811 6.35931 0.698027 6.49746 1.06101C6.73674 1.68225 6.99025 2.29774 7.23522 2.91754L9.25626 8.02083L11.2388 13.0251C11.9035 14.7152 12.5729 16.4058 13.2471 18.0969C13.3197 18.2805 13.4009 18.4613 13.4778 18.6449L13.596 18.6421Z" fill="black"/>
<path d="M185.281 23.6078V1.03395C185.281 0.534668 185.294 0.537542 185.77 0.527499C186.076 0.527499 186.179 0.626497 186.179 0.942135C186.171 8.96222 186.171 16.9818 186.179 25.001C186.179 25.3252 186.055 25.3883 185.763 25.4113C185.336 25.4457 185.075 25.2908 184.84 24.922C180.519 18.1215 176.188 11.3266 171.849 4.53754C171.428 3.87566 171.005 3.21521 170.58 2.5562C170.514 2.46503 170.44 2.37917 170.361 2.29937L170.263 2.3209V2.79435C170.263 10.1593 170.263 17.5241 170.263 24.889C170.263 25.3883 170.244 25.3898 169.778 25.4027C169.449 25.4127 169.351 25.2879 169.351 24.9622C169.358 16.966 169.358 8.97035 169.351 0.975131C169.351 0.612147 169.494 0.544714 169.81 0.526063C170.216 0.501672 170.459 0.646584 170.676 0.988047C174.231 6.58633 177.791 12.1817 181.358 17.7743C182.545 19.6384 183.738 21.4993 184.934 23.3568C185.002 23.4615 185.089 23.5548 185.168 23.6523L185.281 23.6078Z" fill="black"/>
<path d="M233.278 25.8565C231.173 25.8379 229.166 25.439 227.438 24.1679C226.021 23.1306 225.078 21.7403 224.718 19.9928C224.615 19.4936 224.567 18.9814 224.506 18.4735C224.477 18.2281 224.463 17.9914 224.836 17.9885C225.333 17.9885 225.387 18.0101 225.406 18.4304C225.481 20.5395 226.322 22.2697 228.033 23.4979C229.157 24.2859 230.47 24.757 231.835 24.8623C232.778 24.9639 233.73 24.9601 234.672 24.8508C236.501 24.6141 238.113 23.9598 239.198 22.3644C239.999 21.188 240.215 19.8436 240.069 18.4677C239.836 16.3027 238.657 14.8135 236.62 14.0789C235.867 13.8063 235.061 13.6844 234.276 13.505C232.537 13.0947 230.761 12.8006 229.067 12.2511C227.074 11.604 225.792 10.1923 225.409 8.04019C225.21 7.0456 225.212 6.02071 225.417 5.02728C225.809 3.26688 226.81 1.96702 228.368 1.11623C230.069 0.186534 231.905 -0.0215005 233.813 0.139188C235.237 0.25827 236.571 0.639907 237.74 1.45913C238.855 2.2102 239.66 3.34525 240.003 4.65138C240.202 5.41752 240.266 6.2181 240.385 7.00433C240.432 7.31853 240.255 7.38883 239.98 7.37592C239.727 7.363 239.5 7.41322 239.493 7.0115C239.463 5.32714 238.958 3.82929 237.71 2.64134C236.966 1.93402 236.065 1.528 235.092 1.27549C233.87 0.96366 232.597 0.906048 231.352 1.10619C229.406 1.40604 227.75 2.22097 226.76 4.03446C226.189 5.09262 226.002 6.31876 226.233 7.50074C226.354 8.19944 226.531 8.86946 226.913 9.47635C227.722 10.7561 228.946 11.4147 230.358 11.7403C232.308 12.1894 234.277 12.5567 236.227 13.0072C237.973 13.4103 239.396 14.3085 240.272 15.9426C240.842 16.9972 241.038 18.1478 241.007 19.3271C240.956 21.1923 240.363 22.825 238.936 24.0933C238.257 24.6946 237.447 25.1262 236.572 25.353C235.501 25.6399 234.393 25.7748 233.296 25.9771L233.278 25.8565Z" fill="black"/>
<path d="M222.13 19.1704C222.093 21.0843 221.522 22.7643 220.056 24.0771C219.368 24.6651 218.565 25.1002 217.699 25.354C216.179 25.8476 214.62 25.9164 213.026 25.7701C211.508 25.6552 210.045 25.1531 208.773 24.311C207.404 23.3827 206.407 22.1158 205.98 20.4774C205.802 19.7916 205.738 19.0757 205.625 18.3727C205.577 18.0671 205.732 17.9695 206.017 17.9896C206.259 18.0068 206.504 17.9293 206.517 18.3411C206.58 20.2794 207.282 21.9279 208.77 23.2077C209.643 23.9537 210.679 24.3971 211.781 24.661C213.124 24.9765 214.514 25.0373 215.879 24.8404C217.757 24.5821 219.439 23.8963 220.436 22.1689C221.834 19.76 221.466 16.5405 219.179 14.8275C218.287 14.1603 217.247 13.8963 216.188 13.6697C214.937 13.4028 213.685 13.1417 212.438 12.8576C211.683 12.7097 210.939 12.5132 210.21 12.2694C208.411 11.6022 207.117 10.4301 206.634 8.47883C206.192 6.69548 206.264 4.97094 207.176 3.35258C207.866 2.13307 208.904 1.28802 210.202 0.762912C212.338 -0.09792 214.539 -0.132356 216.728 0.445836C218.559 0.929336 219.976 2.0312 220.81 3.78873C221.267 4.801 221.507 5.89901 221.515 7.01112C221.522 7.29806 221.372 7.38127 221.112 7.36692C220.851 7.35258 220.6 7.40997 220.597 7.01255C220.616 5.86188 220.315 4.72881 219.729 3.74139C218.893 2.37123 217.635 1.61513 216.112 1.24498C214.875 0.944313 213.59 0.900377 212.335 1.11585C210.395 1.4444 208.76 2.30667 207.816 4.14741C207.176 5.39275 207.152 6.717 207.467 8.05272C207.983 10.2392 209.544 11.288 211.583 11.7529C213.51 12.1919 215.457 12.5506 217.383 12.9982C219.21 13.4286 220.659 14.4014 221.503 16.1546C221.941 17.0974 222.156 18.1298 222.13 19.1704Z" fill="black"/>
<path d="M150.7 0.0683594C152.61 0.0984885 154.321 0.389738 155.803 1.43278C156.897 2.20322 157.708 3.23049 158.058 4.54756C158.257 5.30222 158.351 6.08558 158.477 6.85889C158.518 7.1114 158.529 7.36965 158.134 7.36965C157.646 7.36965 157.594 7.3467 157.579 6.91054C157.524 5.27639 157.03 3.8259 155.835 2.66664C155.09 1.94928 154.177 1.52747 153.194 1.27209C151.961 0.954714 150.675 0.897082 149.418 1.1028C147.433 1.41556 145.761 2.26923 144.79 4.1444C144.146 5.38687 144.123 6.71542 144.436 8.04971C144.955 10.2506 146.53 11.2907 148.584 11.7613C150.096 12.1071 151.617 12.4141 153.13 12.7542C153.868 12.9206 154.624 13.054 155.326 13.328C157.035 13.9837 158.23 15.1631 158.772 16.9593C159.164 18.2317 159.21 19.587 158.904 20.8833C158.455 22.7929 157.349 24.1831 155.561 25.0067C153.852 25.7857 152.062 25.9292 150.21 25.79C148.585 25.6681 147.085 25.209 145.745 24.308C144.533 23.5153 143.61 22.347 143.115 20.9794C142.798 20.1543 142.623 19.2811 142.596 18.3969C142.596 18.1258 142.637 17.9665 142.961 17.9866C143.229 18.0081 143.481 17.9249 143.496 18.3768C143.566 20.4873 144.391 22.2506 146.116 23.4844C147.265 24.2919 148.609 24.7708 150.007 24.8704C150.915 24.961 151.83 24.9548 152.737 24.8517C154.673 24.6078 156.402 23.922 157.421 22.1401C158.793 19.7427 158.431 16.5447 156.14 14.823C155.248 14.1559 154.21 13.8905 153.149 13.6652C151.897 13.3983 150.645 13.1387 149.398 12.8546C148.656 12.7086 147.923 12.5169 147.204 12.2807C145.386 11.6222 144.07 10.4486 143.589 8.48443C143.173 6.82015 143.21 5.19318 143.976 3.63938C144.58 2.417 145.543 1.53751 146.759 0.937799C148.061 0.306523 149.437 0.11714 150.7 0.0683594Z" fill="black"/>
<path d="M104.658 12.9557V1.06906C104.658 0.548252 104.671 0.532465 105.165 0.533899C107.907 0.545377 110.65 0.473641 113.386 0.597027C115.653 0.698892 117.569 1.63434 118.708 3.74194C119.353 4.96427 119.604 6.358 119.428 7.73046C119.254 9.30865 118.659 10.7175 117.434 11.8008C116.936 12.2466 116.355 12.588 115.725 12.8051C115.649 12.8474 115.58 12.9016 115.521 12.9658C115.585 13.0231 115.641 13.1092 115.716 13.1351C117.71 13.8452 118.896 15.313 119.345 17.3316C119.882 19.7362 119.439 21.9342 117.576 23.686C116.722 24.4718 115.658 24.9885 114.515 25.1724C113.64 25.3178 112.754 25.3902 111.866 25.389C109.647 25.4191 107.428 25.399 105.209 25.399C104.651 25.399 104.651 25.399 104.651 24.8481C104.656 20.8825 104.658 16.9184 104.658 12.9557ZM105.362 18.9485C105.362 20.7147 105.362 22.4794 105.362 24.2441C105.362 24.5913 105.477 24.696 105.816 24.6946C108 24.6831 110.181 24.6831 112.36 24.6946C113.597 24.6946 114.789 24.5196 115.913 23.9772C116.598 23.6621 117.203 23.1923 117.679 22.6042C118.155 22.016 118.491 21.3253 118.66 20.5856C118.936 19.4942 118.927 18.3496 118.634 17.2627C118.343 16.0786 117.652 15.0335 116.679 14.3072C115.621 13.5095 114.4 13.2312 113.105 13.2326C110.698 13.2326 108.291 13.2326 105.884 13.2326C105.387 13.2326 105.359 13.2613 105.357 13.7592L105.362 18.9485ZM105.362 6.93562V12.1623C105.362 12.6903 105.39 12.7204 105.896 12.7204C108.244 12.7204 110.596 12.7391 112.943 12.7089C113.615 12.7037 114.284 12.619 114.937 12.4564C116.397 12.082 117.445 11.1451 118.11 9.80076C118.715 8.55929 118.903 7.15328 118.644 5.79502C118.414 4.44495 117.798 3.31296 116.703 2.49517C115.646 1.70823 114.367 1.28152 113.053 1.27708C110.644 1.24408 108.236 1.257 105.827 1.2527C105.366 1.2527 105.359 1.2613 105.357 1.74337L105.362 6.93562Z" fill="black"/>
<path d="M190.354 12.9449C190.354 8.95921 190.354 4.97356 190.354 0.987908C190.354 0.619185 190.467 0.525925 190.82 0.52736C194.998 0.537881 199.176 0.537881 203.354 0.52736C203.846 0.52736 203.873 0.553186 203.872 0.976428C203.871 1.39967 203.848 1.42837 203.396 1.42837H191.959C191.853 1.43411 191.746 1.43411 191.639 1.42837C191.33 1.3968 191.233 1.52593 191.235 1.84013C191.244 5.26338 191.235 8.68805 191.235 12.1127C191.235 12.5761 191.252 12.5919 191.719 12.5919H203.355C203.844 12.5919 203.834 12.6063 203.861 13.0525C203.882 13.4155 203.727 13.4915 203.402 13.4829C199.523 13.4762 195.645 13.4762 191.766 13.4829C191.236 13.4829 191.235 13.4829 191.235 14.0051V23.9922C191.235 24.4843 191.235 24.4872 191.726 24.4872H203.327C203.824 24.4872 204.002 24.7297 203.835 25.2045C203.81 25.2479 203.777 25.2857 203.738 25.3156C203.698 25.3454 203.653 25.3667 203.604 25.3781C203.488 25.3993 203.369 25.4046 203.251 25.3939H190.903C190.35 25.3939 190.349 25.3939 190.349 24.82L190.354 12.9449Z" fill="black"/>
<path d="M139.836 9.73582C139.836 12.3614 139.836 14.9869 139.836 17.6139C139.856 18.9997 139.568 20.3725 138.991 21.6311C138.621 22.4481 138.093 23.1829 137.439 23.7932C136.785 24.4034 136.017 24.8769 135.18 25.1863C133.669 25.7687 132.04 25.9749 130.433 25.7875C129.624 25.6999 128.799 25.6024 128.029 25.357C125.861 24.6784 124.309 23.2781 123.48 21.1261C123.019 19.8834 122.793 18.5644 122.816 17.238C122.825 11.8549 122.825 6.4723 122.816 1.09019C122.816 0.534955 122.907 0.448876 123.461 0.547872C123.515 0.567896 123.564 0.599405 123.605 0.640256C123.646 0.681108 123.677 0.730338 123.698 0.784595C123.723 0.90102 123.727 1.02102 123.71 1.13898C123.71 6.56939 123.698 11.9998 123.718 17.4302C123.718 19.1103 124.057 20.7157 125.052 22.1304C126.048 23.545 127.416 24.324 129.054 24.6956C130.655 25.0739 132.322 25.0522 133.912 24.6325C136.134 24.0342 137.715 22.6727 138.463 20.4259C138.793 19.4171 138.958 18.3605 138.949 17.2982C138.94 11.8798 138.94 6.4613 138.949 1.04284C138.949 0.579429 139.29 0.357048 139.705 0.559343C139.737 0.581658 139.764 0.610141 139.785 0.643137C139.806 0.676134 139.821 0.712996 139.827 0.7516C139.841 0.858163 139.844 0.965833 139.836 1.07298V9.73582Z" fill="black"/>
<path d="M52.494 25.6927C52.9085 25.5305 53.34 25.4057 53.7374 25.2006C55.0705 24.5363 55.747 23.3713 55.9507 21.9523C56.0832 21.0269 56.0561 20.0757 56.0718 19.136C56.0903 18.0499 56.0718 16.9653 56.0817 15.8792C56.0817 15.5434 55.9806 15.4 55.6345 15.4215C55.2884 15.443 54.9466 15.4287 54.6033 15.4215C54.4923 15.4215 54.3826 15.4043 54.2202 15.3899C54.4737 15.1948 61.4512 15.169 61.8785 15.367C61.6321 15.3871 61.4783 15.4028 61.3259 15.4129C60.9513 15.4373 60.4371 15.3196 60.242 15.5191C60.0469 15.7185 60.1523 16.2364 60.1509 16.6123C60.1509 19.2972 60.1509 21.9806 60.1509 24.6625C60.1509 24.8247 60.1366 24.9853 60.1238 25.2364C59.9814 25.1102 59.9102 25.0499 59.8389 24.9796C59.1354 24.2206 58.2723 24.0198 57.2753 24.1962C56.5532 24.3239 55.9066 24.6267 55.2428 24.9136C54.5478 25.2092 53.83 25.4531 53.1065 25.6869C52.9156 25.7486 52.6792 25.6869 52.4727 25.6869L52.494 25.6927Z" fill="black"/>
<path d="M164.508 13.0063V24.8872C164.508 25.3606 164.182 25.5759 163.755 25.375C163.722 25.3539 163.695 25.3263 163.673 25.294C163.651 25.2617 163.637 25.2253 163.63 25.187C163.615 25.0806 163.611 24.9728 163.62 24.8657V1.06653C163.62 0.552901 163.816 0.402259 164.322 0.550035C164.365 0.571663 164.403 0.602314 164.433 0.639933C164.463 0.677551 164.485 0.721257 164.497 0.768106C164.516 0.885663 164.52 1.00534 164.508 1.12392V13.0063Z" fill="black"/>
</g>
<defs>
<clipPath id="clip0_1052_751">
<rect width="241" height="26" fill="white"/>
</clipPath>
</defs>
</svg>
