<svg width="246" height="36" viewBox="0 0 246 36" fill="none" xmlns="http://www.w3.org/2000/svg">
<path d="M35.0383 12.1863C31.4061 12.1732 27.774 12.159 24.1418 12.1436C23.7287 12.1436 23.5303 12.2896 23.5582 12.716C23.5729 12.9342 23.5582 13.1539 23.5582 13.3721V35.0506H12.1617V13.2212C12.1617 12.142 12.1617 12.1404 11.1124 12.1404H0.732422V0.791016H35.0088V12.206L35.0383 12.1863Z" fill="black"/>
<path d="M35.0103 12.2027H46.4871C46.5067 12.5996 46.5363 12.9145 46.5363 13.2294C46.5363 16.3997 46.5658 19.57 46.5199 22.7419C46.5067 23.5619 46.7724 23.7259 47.5413 23.7259C54.5077 23.698 61.4774 23.7095 68.4406 23.7095H69.4555V35.049H35.189C35.1726 34.7292 35.1398 34.393 35.1398 34.0469C35.1398 27.1061 35.1398 20.1631 35.1398 13.2179C35.1398 12.8686 35.084 12.5193 35.0529 12.1699L35.0103 12.2027Z" fill="black"/>
<path d="M69.4675 0.802734V12.0816C69.1986 12.1029 68.9625 12.1373 68.7264 12.1373C61.6523 12.1373 54.5771 12.1406 47.5009 12.1472C46.968 12.1472 46.6303 12.1095 46.6368 11.4239C46.6647 8.06173 46.6483 4.69956 46.6532 1.34068C46.6663 1.16007 46.6904 0.980422 46.7253 0.802734H69.4675Z" fill="black"/>
<path d="M164.289 14.9228L159.31 16.8745C159.031 16.3316 158.803 15.8133 158.514 15.3311C157.288 13.2843 154.512 13.2925 153.494 15.4443C152.893 16.6647 152.582 18.0079 152.586 19.3686C152.59 20.7293 152.91 22.0705 153.519 23.2872C154.434 25.188 156.921 25.4472 158.352 23.8891C158.844 23.3528 159.229 22.7164 159.711 22.0571L164.353 24.5172C163.007 27.2463 161.016 29.0898 158.029 29.5195C156.627 29.7222 155.202 29.7039 153.806 29.4654C150.968 28.9733 148.959 27.2463 147.862 24.5878C146.431 21.1223 146.397 17.5912 147.882 14.1421C149.22 11.0423 151.694 9.3629 155.048 9.05785C156.002 8.98263 156.96 9.00351 157.909 9.12017C161.362 9.51378 163.225 11.7131 164.289 14.9228Z" fill="black"/>
<path d="M236.409 8.48438V15.0857C237.352 14.7577 238.235 14.3017 239.17 14.123C242.254 13.5325 244.446 15.107 244.908 18.2018C245.033 19.1758 245.088 20.1575 245.072 21.1392C245.09 23.8158 245.072 26.4925 245.072 29.1756C245.057 29.2435 245.033 29.3092 245 29.3708H239.88V28.4671C239.88 26.0628 239.88 23.66 239.88 21.2508C239.892 20.7571 239.862 20.2633 239.791 19.7747C239.627 18.8218 239.093 18.397 238.152 18.397C237.191 18.397 236.706 18.7857 236.522 19.7665C236.447 20.1965 236.411 20.6323 236.414 21.0687C236.404 23.5288 236.414 25.9889 236.414 28.4491V29.3692H231.257C231.243 29.0821 231.218 28.7935 231.218 28.5048C231.218 22.7957 231.226 17.0866 231.202 11.3775C231.202 10.769 231.356 10.4508 231.951 10.2294C233.405 9.70952 234.833 9.10925 236.409 8.48438Z" fill="black"/>
<path d="M134.91 8.55273V15.1377C135.954 14.7883 136.922 14.3176 137.938 14.1536C140.842 13.6616 142.916 15.1934 143.386 18.1029C143.512 18.9669 143.572 19.8392 143.567 20.7123C143.588 23.5513 143.575 26.3902 143.575 29.2997H138.558C138.536 29.0242 138.494 28.7126 138.494 28.3993C138.494 26.1032 138.494 23.8071 138.494 21.511C138.494 20.992 138.464 20.4735 138.405 19.9579C138.279 18.8852 137.761 18.3817 136.799 18.3522C135.741 18.3178 135.218 18.7327 134.995 19.8381C134.926 20.2405 134.895 20.6485 134.903 21.0567C134.903 23.7858 134.903 26.5149 134.903 29.303H129.903C129.886 29.0537 129.855 28.793 129.855 28.5305C129.855 22.7903 129.855 17.0598 129.84 11.3245C129.84 10.7357 130.021 10.4618 130.572 10.2617C131.985 9.74835 133.385 9.15792 134.91 8.55273Z" fill="black"/>
<path d="M194.525 29.3832H189.442C189.395 29.1109 189.352 28.8584 189.311 28.6156C188.575 28.9437 187.908 29.3291 187.18 29.5275C183.788 30.4607 181.071 28.6517 180.856 25.0993C180.65 21.6961 180.751 18.2733 180.723 14.857C180.735 14.6874 180.761 14.519 180.8 14.3535H185.883C185.899 14.6701 185.926 14.9587 185.926 15.2474C185.926 17.6533 185.926 20.0577 185.926 22.4637C185.924 22.9578 185.961 23.4513 186.035 23.9398C186.199 24.9238 186.699 25.3388 187.637 25.3421C188.575 25.3453 189.113 24.9189 189.277 23.9693C189.341 23.535 189.368 23.0961 189.357 22.6572C189.357 20.1971 189.357 17.737 189.357 15.2769V14.3601H194.505L194.525 29.3832Z" fill="black"/>
<path d="M212.08 29.3813H206.95V28.4727C206.95 26.0126 206.95 23.5525 206.95 21.0923C206.959 20.6283 206.926 20.1643 206.85 19.7065C206.671 18.7979 206.15 18.3944 205.241 18.3944C204.333 18.3944 203.803 18.7847 203.618 19.6819C203.534 20.1108 203.492 20.547 203.493 20.9841C203.482 23.4705 203.493 25.9568 203.493 28.4448V29.3633H198.381V14.391H203.426C203.457 14.6255 203.489 14.865 203.531 15.1962C203.738 15.0913 203.923 15.0142 204.092 14.9109C204.765 14.4868 205.516 14.2025 206.3 14.0749C207.085 13.9472 207.887 13.9789 208.66 14.1679C210.106 14.4959 211.085 15.398 211.611 16.7625C211.842 17.3694 212.057 18.027 212.065 18.665C212.103 22.2109 212.08 25.7584 212.08 29.3813Z" fill="black"/>
<path d="M98.082 9.42969V14.117H92.4748V29.3239H87.0135V14.122H81.3882V9.42969H98.082Z" fill="black"/>
<path d="M111.11 23.3222H102.35C102.391 24.7983 103.255 25.8168 104.618 25.7692C105.711 25.7299 106.797 25.3953 107.88 25.164C108.166 25.1033 108.428 24.9393 108.776 24.7934C109.402 25.8348 110.018 26.855 110.723 28.026C109.856 28.3983 109.064 28.8001 108.231 29.0838C106.685 29.6415 105.026 29.8132 103.398 29.584C100.658 29.1724 98.8892 27.616 98.0793 25.0049C97.4335 22.9265 97.4393 20.7001 98.0957 18.625C99.0007 15.6614 101.563 13.9246 104.706 14.0558C107.894 14.187 110.02 15.9205 110.761 19.0416C110.928 19.7875 111.042 20.5444 111.101 21.3066C111.155 21.9249 111.11 22.553 111.11 23.3222ZM102.283 20.0978H106.579C106.492 18.6316 105.792 17.8591 104.526 17.7886C103.26 17.7181 102.58 18.4085 102.283 20.0978Z" fill="black"/>
<path d="M228.075 17.5417L224.645 20.1379C224.34 19.7 224.108 19.2998 223.812 18.9538C222.794 17.7582 221.217 17.9927 220.686 19.4589C220.135 20.9608 220.117 22.6062 220.633 24.12C221.125 25.6191 222.637 26.0078 223.839 24.9712C224.286 24.5875 224.647 24.1036 225.091 23.6149L228.229 26.0652C227.051 28.6729 224.165 30.1194 221.124 29.6733C217.899 29.1944 215.929 27.3051 215.385 24.0626C215.006 21.819 215.046 19.5885 216.1 17.5023C217.346 15.0291 219.522 14.1057 222.148 14.0237C224.775 13.9417 226.718 15.0701 228.051 17.3039C228.069 17.3818 228.077 17.4617 228.075 17.5417Z" fill="black"/>
<path d="M126.617 17.4686C125.469 18.346 124.343 19.1956 123.195 20.0697C122.941 19.6958 122.733 19.3793 122.513 19.0709C122.021 18.3887 121.365 18.0721 120.531 18.2066C119.721 18.3345 119.319 18.9086 119.101 19.6187C118.642 21.058 118.635 22.6036 119.082 24.0469C119.603 25.687 121.223 26.0905 122.513 24.9244C122.895 24.5783 123.205 24.1552 123.623 23.6828L126.712 26.0905C125.4 28.69 122.682 30.0496 119.775 29.6216C116.478 29.1295 114.529 27.291 113.966 24.0912C113.658 22.4508 113.698 20.7637 114.084 19.1398C115.016 15.3676 118.019 13.8538 121.544 14.0998C123.83 14.2589 125.44 15.4677 126.617 17.4686Z" fill="black"/>
<path d="M167.549 14.3502H172.558C172.604 14.6437 172.647 14.9209 172.679 15.1243C173.48 14.7782 174.252 14.4059 175.055 14.1156C175.423 14.0129 175.808 13.9806 176.188 14.0205C178.141 14.1205 178.369 14.4289 177.934 16.2969C177.659 17.4827 177.392 18.6701 177.101 19.9396C176.726 19.6542 176.445 19.4065 176.131 19.2097C174.378 18.1043 172.702 18.9424 172.655 21.0023C172.599 23.4296 172.637 25.8602 172.634 28.2908V29.3405H167.551L167.549 14.3502Z" fill="black"/>
</svg>
