<?xml version="1.0" encoding="utf-8"?>
<!-- Generator: Adobe Illustrator 26.0.3, SVG Export Plug-In . SVG Version: 6.00 Build 0)  -->
<svg version="1.1" id="Layer_1" xmlns="http://www.w3.org/2000/svg" xmlns:xlink="http://www.w3.org/1999/xlink" x="0px" y="0px"
	 viewBox="0 0 583 77" style="enable-background:new 0 0 583 77;" xml:space="preserve">
<style type="text/css">
	.st0{fill:#1D1D1B;}
</style>
<path class="st0" d="M20.2,75.2V49h8.9C49,49,55.8,36.1,55.8,24.8c0-10.3-6.8-23.1-26.7-23.1H0v73.5H20.2z M24.1,35.5h-3.9V15.7h3.9
	c7.8,0,10.7,4.1,10.7,9.9C34.7,31,32.1,35.5,24.1,35.5z"/>
<path class="st0" d="M131,77c17.9,0,30-10.8,30-24.6c0-12.4-7.7-18.2-19.2-21.5l-10.5-3c-5.7-1.7-7.7-3.7-7.7-6.9
	c0-2.9,2.3-5.1,7.5-5.1c4.6,0,9.6,2.3,15,9.1l14.3-12.3C154.7,5.4,145.4,0,132.3,0c-16.4,0-28.5,8.6-28.5,23.7
	c0,10.8,7.1,17.6,19.3,21l9.8,2.8c5.8,1.7,7.7,3.2,7.7,7.2c0,4.1-4.4,6-8.1,6c-7.4,0-12.5-3-15.8-10.2l-16.4,8.8
	C107.1,73.2,119.9,77,131,77z"/>
<path class="st0" d="M248.3,75.2V48.1l20.5-46.4h-21.9l-8.6,29.2l-9.2-29.2h-21.6l20.5,46.4v27.1H248.3z"/>
<path class="st0" d="M342.2,45.4L354,75.2h23L357.6,31l17.5-29.3h-22.7l-14.3,28v-28h-20.2v73.5h20.2V53L342.2,45.4z"/>
<path class="st0" d="M478.6,75.2V1.8h-20.2v28.8h-13.8V1.8h-20.2v73.5h20.2V45.6h13.8v29.6H478.6z"/>
<path class="st0" d="M582.3,17.3V1.8h-47.8v73.5H583V59.7h-28.4V45.3h25.8V30.1h-25.8V17.3H582.3z"/>
</svg>
